   <svg xmlns="http://www.w3.org/2000/svg" viewBox="0 0 500 382" preserveAspectRatio="xMidYMid meet">
                  <defs>
                    <clipPath id="__lottie_element_7">
                      <rect width="500" height="382" x="0" y="0"></rect>
                    </clipPath>
                    <clipPath id="__lottie_element_9">
                      <path d="M0,0 L500,0 L500,382 L0,382z"></path>
                    </clipPath>
                    <clipPath id="__lottie_element_10">
                      <path
                        fill="#ffffff"
                        clipRule="nonzero"
                        d=" M524.25,-11.625 C524.25,-11.625 -15.25,-11.625 -15.25,-11.625 C-15.25,-11.625 -15.25,350.875 -15.25,350.875 C-15.25,350.875 524.25,350.875 524.25,350.875 C524.25,350.875 524.25,-11.625 524.25,-11.625"
                        fillOpacity="1"
                      ></path>
                    </clipPath>
                    <filter
                      id="__lottie_element_13"
                      filterUnits="objectBoundingBox"
                      x="0%"
                      y="0%"
                      width="100%"
                      height="100%"
                    >
                      <feComponentTransfer in="SourceGraphic">
                        <feFuncA type="table" tableValues="1.0 0.0"></feFuncA>
                      </feComponentTransfer>
                    </filter>
                    <mask id="__lottie_element_12" mask-type="alpha">
                      <g filter="url(#__lottie_element_13)">
                        <rect width="500" height="382" x="0" y="0" fill="#ffffff" opacity="0"></rect>
                        <g clipPath="url(#__lottie_element_14)" transform="matrix(1,0,0,1,0,0)" opacity="1">
                          <g transform="matrix(1,0,0,1,255.1959991455078,226.87799072265625)" opacity="1">
                            <g opacity="1" transform="matrix(2,0,0,2,0,0)">
                              <path
                                fill="rgb(255,255,255)"
                                fillOpacity="1"
                                d=" M28.886999130249023,62.25299835205078 C36.275001525878906,62.314998626708984 42.38399887084961,53.604000091552734 42.50400161743164,43.58399963378906 C42.57500076293945,37.67499923706055 40.54199981689453,32.16400146484375 37.04600143432617,28.722999572753906 C40.624000549316406,25.343000411987305 42.78900146484375,19.865999221801758 42.86000061035156,13.956999778747559 C42.92599868774414,8.46500015258789 41.20399856567383,3.3559999465942383 38.12300109863281,-0.14000000059604645 C41.28799819946289,-3.5810000896453857 43.13199996948242,-8.661999702453613 43.198001861572266,-14.154000282287598 C43.275001525878906,-20.500999450683594 40.88399887084961,-26.427000045776367 36.9370002746582,-29.746000289916992 C38.569000244140625,-32.18000030517578 39.448001861572266,-35.060001373291016 39.48400115966797,-38.104000091552734 C39.57899856567383,-45.96500015258789 33.91699981689453,-52.40800094604492 26.86199951171875,-52.46799850463867 C26.19499969482422,-52.472999572753906 25.517000198364258,-52.41899871826172 24.843000411987305,-52.30500030517578 C22.88800048828125,-58.090999603271484 16.736000061035156,-62.14099884033203 9.732000350952148,-62.20000076293945 C5.85099983215332,-62.233001708984375 2.119999885559082,-61.05099868774414 -0.8130000233650208,-58.86399841308594 C-3.618000030517578,-61.07099914550781 -6.974999904632568,-62.25299835205078 -10.543999671936035,-62.28300094604492 C-17.575000762939453,-62.34299850463867 -23.910999298095703,-57.707000732421875 -26.099000930786133,-50.95800018310547 C-27.18199920654297,-51.2599983215332 -28.298999786376953,-51.417999267578125 -29.426000595092773,-51.428001403808594 C-36.58399963378906,-51.487998962402344 -42.47800064086914,-45.63100051879883 -42.566001892089844,-38.37099838256836 C-42.6349983215332,-32.59600067138672 -39.67599868774414,-31.145000457763672 -37.51499938964844,-30.084999084472656 C-36.724998474121094,-29.697999954223633 -36.03099822998047,-29.35700035095215 -35.59600067138672,-28.885000228881836 C-35.59600067138672,-28.885000228881836 -43.20000076293945,26.07699966430664 -43.20000076293945,26.07699966430664 C-43.20000076293945,26.07699966430664 -35.15399932861328,26.145999908447266 -35.15399932861328,26.145999908447266 C-35.15399932861328,26.145999908447266 -35.4900016784668,62.284000396728516 -35.4900016784668,62.284000396728516"
                              ></path>
                            </g>
                          </g>
                        </g>
                      </g>
                    </mask>
                    <clipPath id="__lottie_element_14">
                      <path d="M0,0 L500,0 L500,382 L0,382z"></path>
                    </clipPath>
                    <clipPath id="__lottie_element_18">
                      <path d="M0,0 L500,0 L500,382 L0,382z"></path>
                    </clipPath>
                    <clipPath id="__lottie_element_19">
                      <path
                        fill="#ffffff"
                        clipRule="nonzero"
                        d=" M524.25,-11.625 C524.25,-11.625 -15.25,-11.625 -15.25,-11.625 C-15.25,-11.625 -15.25,350.875 -15.25,350.875 C-15.25,350.875 524.25,350.875 524.25,350.875 C524.25,350.875 524.25,-11.625 524.25,-11.625"
                        fillOpacity="1"
                      ></path>
                    </clipPath>
                    <filter
                      id="__lottie_element_22"
                      filterUnits="objectBoundingBox"
                      x="0%"
                      y="0%"
                      width="100%"
                      height="100%"
                    >
                      <feComponentTransfer in="SourceGraphic">
                        <feFuncA type="table" tableValues="1.0 0.0"></feFuncA>
                      </feComponentTransfer>
                    </filter>
                    <mask id="__lottie_element_21" mask-type="alpha">
                      <g filter="url(#__lottie_element_22)">
                        <rect width="500" height="382" x="0" y="0" fill="#ffffff" opacity="0"></rect>
                        <g clipPath="url(#__lottie_element_23)" transform="matrix(1,0,0,1,0,0)" opacity="1">
                          <g
                            transform="matrix(0.9997899532318115,0,0,0.9997899532318115,255.80987548828125,263.3157958984375)"
                            opacity="1"
                          >
                            <g opacity="1" transform="matrix(2,0,0,2,0,0)">
                              <path
                                fill="rgb(122,194,187)"
                                fillOpacity="1"
                                d=" M25.19099998474121,-20.52199935913086 C25.19099998474121,-20.52199935913086 25.475000381469727,44.22600173950195 25.475000381469727,44.22600173950195 C25.475000381469727,44.22600173950195 -19.924999237060547,44.183998107910156 -19.924999237060547,44.183998107910156 C-19.924999237060547,44.183998107910156 -19.604999542236328,6.172999858856201 -19.604999542236328,6.172999858856201 C-19.604999542236328,6.172999858856201 -25.554000854492188,6.218999862670898 -25.554000854492188,6.218999862670898 C-25.554000854492188,6.218999862670898 -23.413000106811523,-23.80900001525879 -23.413000106811523,-23.80900001525879 C-23.288999557495117,-25.547000885009766 -22.878999710083008,-27.260000228881836 -22.134000778198242,-28.834999084472656 C-18.354999542236328,-36.82600021362305 -9.53499984741211,-42.229000091552734 0.3889999985694885,-42.305999755859375 C13.845999717712402,-42.409000396728516 24.9060001373291,-32.7859992980957 25.18600082397461,-20.79599952697754 C25.18600082397461,-20.79599952697754 25.187999725341797,-20.79599952697754 25.187999725341797,-20.79599952697754 C25.187999725341797,-20.79599952697754 25.19099998474121,-20.52199935913086 25.19099998474121,-20.52199935913086z"
                              ></path>
                            </g>
                          </g>
                        </g>
                      </g>
                    </mask>
                    <clipPath id="__lottie_element_23">
                      <path d="M0,0 L500,0 L500,382 L0,382z"></path>
                    </clipPath>
                  </defs>
                  <g clipPath="url(#__lottie_element_7)">
                    <g mask="url(#__lottie_element_12)">
                      <g clipPath="url(#__lottie_element_9)" transform="matrix(1,0,0,1,0,0)" opacity="1">
                        <g clipPath="url(#__lottie_element_10)">
                          <g
                            transform="matrix(1.0001881122589111,0,0,1.0001881122589111,250.0340118408203,198.2151336669922)"
                            opacity="1"
                          >
                            <g opacity="1" transform="matrix(2,0,0,2,0,0)">
                              <path
                                fill="rgb(21,56,79)"
                                fillOpacity="1"
                                d=" M54.632999420166016,-50.13600158691406 C65.36100006103516,-34.52799987792969 69.08699798583984,-14.494000434875488 68.68199920654297,6.434000015258789 C67.73500061035156,55.361000061035156 45.29100036621094,76.3949966430664 45.29100036621094,76.39399719238281 C45.29100036621094,76.39399719238281 -54.571998596191406,76.39399719238281 -54.571998596191406,76.39399719238281 C-64.04100036621094,75.68199920654297 -63.117000579833984,64.12899780273438 -62.04800033569336,50.750999450683594 C-62.04800033569336,50.750999450683594 -59.80400085449219,21.382999420166016 -59.80400085449219,21.382999420166016 C-59.80400085449219,21.382999420166016 -68.71199798583984,20.756000518798828 -68.71199798583984,20.756000518798828 C-68.71199798583984,20.756000518798828 -48.08000183105469,-37.81999969482422 -48.08000183105469,-37.81999969482422 C-48.08000183105469,-37.81999969482422 -47.939998626708984,-38.198001861572266 -47.939998626708984,-38.198001861572266 C-34.939998626708984,-63.599998474121094 -12.102999687194824,-77.93699645996094 11.701000213623047,-76.26200103759766 C11.784000396728516,-76.25599670410156 11.866999626159668,-76.2509994506836 11.951000213623047,-76.24400329589844 C28.77400016784668,-74.9800033569336 43.92300033569336,-65.71499633789062 54.632999420166016,-50.13600158691406z"
                              ></path>
                            </g>
                          </g>
                        </g>
                      </g>
                    </g>
                    <g mask="url(#__lottie_element_21)">
                      <g clipPath="url(#__lottie_element_18)" transform="matrix(1,0,0,1,0,0)" opacity="1">
                        <g clipPath="url(#__lottie_element_19)">
                          <g transform="matrix(1,0,0,1,255.1959991455078,226.87799072265625)" opacity="1">
                            <g opacity="1" transform="matrix(2,0,0,2,0,0)">
                              <path
                                fill="rgb(255,255,255)"
                                fillOpacity="1"
                                d=" M28.886999130249023,62.25299835205078 C36.275001525878906,62.314998626708984 42.38399887084961,53.604000091552734 42.50400161743164,43.58399963378906 C42.57500076293945,37.67499923706055 40.54199981689453,32.16400146484375 37.04600143432617,28.722999572753906 C40.624000549316406,25.343000411987305 42.78900146484375,19.865999221801758 42.86000061035156,13.956999778747559 C42.92599868774414,8.46500015258789 41.20399856567383,3.3559999465942383 38.12300109863281,-0.14000000059604645 C41.28799819946289,-3.5810000896453857 43.13199996948242,-8.661999702453613 43.198001861572266,-14.154000282287598 C43.275001525878906,-20.500999450683594 40.88399887084961,-26.427000045776367 36.9370002746582,-29.746000289916992 C38.569000244140625,-32.18000030517578 39.448001861572266,-35.060001373291016 39.48400115966797,-38.104000091552734 C39.57899856567383,-45.96500015258789 33.91699981689453,-52.40800094604492 26.86199951171875,-52.46799850463867 C26.19499969482422,-52.472999572753906 25.517000198364258,-52.41899871826172 24.843000411987305,-52.30500030517578 C22.88800048828125,-58.090999603271484 16.736000061035156,-62.14099884033203 9.732000350952148,-62.20000076293945 C5.85099983215332,-62.233001708984375 2.119999885559082,-61.05099868774414 -0.8130000233650208,-58.86399841308594 C-3.618000030517578,-61.07099914550781 -6.974999904632568,-62.25299835205078 -10.543999671936035,-62.28300094604492 C-17.575000762939453,-62.34299850463867 -23.910999298095703,-57.707000732421875 -26.099000930786133,-50.95800018310547 C-27.18199920654297,-51.2599983215332 -28.298999786376953,-51.417999267578125 -29.426000595092773,-51.428001403808594 C-36.58399963378906,-51.487998962402344 -42.47800064086914,-45.63100051879883 -42.566001892089844,-38.37099838256836 C-42.6349983215332,-32.59600067138672 -39.67599868774414,-31.145000457763672 -37.51499938964844,-30.084999084472656 C-36.724998474121094,-29.697999954223633 -36.03099822998047,-29.35700035095215 -35.59600067138672,-28.885000228881836 C-35.59600067138672,-28.885000228881836 -43.20000076293945,26.07699966430664 -43.20000076293945,26.07699966430664 C-43.20000076293945,26.07699966430664 -35.15399932861328,26.145999908447266 -35.15399932861328,26.145999908447266 C-35.15399932861328,26.145999908447266 -35.4900016784668,62.284000396728516 -35.4900016784668,62.284000396728516"
                              ></path>
                            </g>
                          </g>
                        </g>
                      </g>
                    </g>
                  </g>
                </svg>