<svg xmlns="http://www.w3.org/2000/svg" viewBox="0 0 1257 960" width="1257" height="960" class="lottie-asset-module--lottieSvg--1Hi01" preserveAspectRatio="xMidYMid meet" style="width: 100%; height: 100%; transform: translate3d(0px, 0px, 0px);"><defs><clipPath id="__lottie_element_502"><rect width="1257" height="960" x="0" y="0"></rect></clipPath><clipPath id="__lottie_element_507"><path d="M0,0 L1257,0 L1257,960 L0,960z"></path></clipPath><mask id="__lottie_element_510" mask-type="alpha"><g class="mask" transform="matrix(1,0,0,-0.9578773379325867,632.6069946289062,465.2850036621094)" opacity="1" style="display: block;"><g opacity="1" transform="matrix(2,0,0,2,0,0)"><path fill="rgb(255,255,255)" fill-opacity="1" d=" M-220.69900512695312,0.0010000000474974513 C-98.80899810791016,-121.88899993896484 98.81099700927734,-121.88899993896484 220.69900512695312,0.0010000000474974513 C98.81099700927734,121.88899993896484 -98.80899810791016,121.88899993896484 -220.69900512695312,0.0010000000474974513z"></path></g></g></mask></defs><g clip-path="url(#__lottie_element_502)"><g class="eye" transform="matrix(1,0,0,-0.9578773379325867,632.6069946289062,465.2850036621094)" opacity="1" style="display: block;"><g opacity="1" transform="matrix(2,0,0,2,0,0)"><path fill="rgb(255,255,255)" fill-opacity="1" d=" M-220.69900512695312,0.0010000000474974513 C-98.80899810791016,-121.88899993896484 98.81099700927734,-121.88899993896484 220.69900512695312,0.0010000000474974513 C98.81099700927734,121.88899993896484 -98.80899810791016,121.88899993896484 -220.69900512695312,0.0010000000474974513z"></path></g></g><g mask="url(#__lottie_element_510)" style="display: block;"><g class="gauge" clip-path="url(#__lottie_element_507)" transform="matrix(1,0,0,1,0,0)" opacity="1"><g transform="matrix(1,0,0,1,632.5880126953125,465.28900146484375)" opacity="1" style="display: block;"><g opacity="1" transform="matrix(2,0,0,2,0,0)"><path fill="rgb(21,56,79)" fill-opacity="1" d=" M0,91.4020004272461 C50.47999954223633,91.4020004272461 91.4020004272461,50.47999954223633 91.4020004272461,0 C91.4020004272461,-50.47999954223633 50.47999954223633,-91.4020004272461 0,-91.4020004272461 C-50.47999954223633,-91.4020004272461 -91.4020004272461,-50.47999954223633 -91.4020004272461,0 C-91.4020004272461,50.47999954223633 -50.47999954223633,91.4020004272461 0,91.4020004272461z"></path></g></g><g transform="matrix(1,0,0,1,632.5889892578125,385.3169860839844)" opacity="1" style="display: block;"><g opacity="1" transform="matrix(2,0,0,2,0,0)"><path stroke-linecap="butt" stroke-linejoin="miter" fill-opacity="0" stroke-miterlimit="4" stroke="rgb(158,185,100)" stroke-opacity="1" stroke-width="22.85" d=" M-79.97599792480469,39.987998962402344 C-79.97599792480469,-4.182000160217285 -44.16999816894531,-39.987998962402344 0,-39.987998962402344 C44.16999816894531,-39.987998962402344 79.97599792480469,-4.182000160217285 79.97599792480469,39.987998962402344"></path></g></g><g transform="matrix(1,0,0,1,552.6119995117188,385.3169860839844)" opacity="1" style="display: block;"><g opacity="1" transform="matrix(2,0,0,2,0,0)"><path stroke-linecap="butt" stroke-linejoin="miter" fill-opacity="0" stroke-miterlimit="4" stroke="rgb(245,222,102)" stroke-opacity="1" stroke-width="22.85" d=" M-39.987998962402344,39.987998962402344 C-39.987998962402344,-4.182000160217285 -4.182000160217285,-39.987998962402344 39.987998962402344,-39.987998962402344"></path></g></g><g transform="matrix(1,0,0,1,496.06298828125,408.739990234375)" opacity="1" style="display: block;"><g opacity="1" transform="matrix(2,0,0,2,0,0)"><path stroke-linecap="butt" stroke-linejoin="miter" fill-opacity="0" stroke-miterlimit="4" stroke="rgb(211,116,88)" stroke-opacity="1" stroke-width="22.85" d=" M-11.711999893188477,28.274999618530273 C-11.711999893188477,6.190999984741211 -2.760999917984009,-13.802000045776367 11.711999893188477,-28.274999618530273"></path></g></g><g transform="matrix(1,0,0,1,632.635009765625,465.39300537109375)" opacity="1" style="display: block;"><g opacity="1" transform="matrix(2,0,0,2,0,0)"><path fill="rgb(255,255,255)" fill-opacity="1" d=" M0,22.85099983215332 C12.619999885559082,22.85099983215332 22.85099983215332,12.619999885559082 22.85099983215332,0 C22.85099983215332,-12.619999885559082 12.619999885559082,-22.85099983215332 0,-22.85099983215332 C-12.619999885559082,-22.85099983215332 -22.85099983215332,-12.619999885559082 -22.85099983215332,0 C-22.85099983215332,12.619999885559082 -12.619999885559082,22.85099983215332 0,22.85099983215332z"></path></g></g><g transform="matrix(1,0,0,1,591.4229736328125,424.76800537109375)" opacity="1" style="display: block;"><g opacity="1" transform="matrix(2,0,0,2,0,0)"><path fill="rgb(255,255,255)" fill-opacity="1" d=" M15.609000205993652,1.6230000257492065 C15.609000205993652,1.6230000257492065 -15.609000205993652,-15.609000205993652 -15.609000205993652,-15.609000205993652 C-15.609000205993652,-15.609000205993652 1.6230000257492065,15.609000205993652 1.6230000257492065,15.609000205993652 C1.6230000257492065,15.609000205993652 15.609000205993652,1.6230000257492065 15.609000205993652,1.6230000257492065z"></path></g></g></g></g></g></svg>