<svg xmlns="http://www.w3.org/2000/svg" viewBox="0 0 310 268" width="310" height="268" class="lottie-asset-module--lottieSvg--1Hi01" preserveAspectRatio="xMidYMid meet" style="width: 100%; height: 100%; transform: translate3d(0px, 0px, 0px);"><defs><clipPath id="__lottie_element_615"><rect width="310" height="268" x="0" y="0"></rect></clipPath></defs><g clip-path="url(#__lottie_element_615)"><g transform="matrix(1.333299994468689,0,0,1.333299994468689,0,0)" opacity="1" style="display: block;"><g opacity="1" transform="matrix(1,0,0,1,0,0)"><g opacity="1" transform="matrix(1,0,0,1,0,0)"><path fill="rgb(20,56,79)" fill-opacity="1" d=" M205.7100067138672,103.9800033569336 C203.2899932861328,94.94000244140625 197.30999755859375,88.05000305175781 190.3300018310547,85.1500015258789 C190.6699981689453,81.62999725341797 190.3800048828125,77.87999725341797 189.3800048828125,74.12000274658203 C186.86000061035156,64.69000244140625 180.47000122070312,57.59000015258789 173.1199951171875,54.90999984741211 C169.5800018310547,53.470001220703125 165.80999755859375,53.060001373291016 162.11000061035156,53.91999816894531 C158.55999755859375,40.810001373291016 146.60000610351562,32.619998931884766 135.36000061035156,35.619998931884766 C134.6699981689453,35.79999923706055 134,36.040000915527344 133.33999633789062,36.29999923706055 C130.5399932861328,37.279998779296875 128.0800018310547,38.91999816894531 126.05000305175781,41.02000045776367 C120.62000274658203,34.849998474121094 112.76000213623047,31.799999237060547 105.20999908447266,33.81999969482422 C105.16000366210938,33.83000183105469 105.12000274658203,33.849998474121094 105.06999969482422,33.86000061035156 C104.81999969482422,33.91999816894531 104.55999755859375,33.970001220703125 104.30999755859375,34.040000915527344 C99.08999633789062,35.45000076293945 94.94000244140625,39.029998779296875 92.3499984741211,43.77000045776367 C87.7300033569336,40.959999084472656 82.36000061035156,39.91999816894531 77.12999725341797,41.31999969482422 C76.87999725341797,41.38999938964844 76.63999938964844,41.470001220703125 76.38999938964844,41.54999923706055 C76.33999633789062,41.560001373291016 76.29000091552734,41.56999969482422 76.23999786376953,41.59000015258789 C68.69000244140625,43.619998931884766 63.40999984741211,50.18000030517578 61.790000915527344,58.2400016784668 C58.97999954223633,57.439998626708984 56.040000915527344,57.25 53.119998931884766,57.79999923706055 C52.41999816894531,57.900001525878906 51.72999954223633,58.029998779296875 51.029998779296875,58.220001220703125 C39.790000915527344,61.2400016784668 33.529998779296875,74.30999755859375 37.0099983215332,87.44000244140625 C33.380001068115234,88.55000305175781 30.309999465942383,90.79000091552734 27.969999313354492,93.80000305175781 C22.940000534057617,99.80000305175781 20.969999313354492,109.13999938964844 23.5,118.56999969482422 C24.510000228881836,122.33000183105469 26.139999389648438,125.72000122070312 28.190000534057617,128.60000610351562 C23.600000381469727,134.60000610351562 21.860000610351562,143.5399932861328 24.280000686645508,152.58999633789062 C24.31999969482422,152.74000549316406 24.3700008392334,152.88999938964844 24.40999984741211,153.0399932861328 C24.450000762939453,153.1999969482422 24.489999771118164,153.3699951171875 24.530000686645508,153.5399932861328 C24.639999389648438,153.9499969482422 24.790000915527344,154.35000610351562 24.969999313354492,154.74000549316406 C30.219999313354492,168.86000061035156 46.40999984741211,169.97000122070312 51.7400016784668,168.67999267578125 C51.7400016784668,168.67999267578125 51.72999954223633,168.69000244140625 51.72999954223633,168.69000244140625 C51.72999954223633,168.69000244140625 51.959999084472656,168.6300048828125 51.959999084472656,168.6300048828125 C51.959999084472656,168.6300048828125 189.75999450683594,131.7100067138672 189.75999450683594,131.7100067138672 C189.75999450683594,131.7100067138672 189.97999572753906,131.64999389648438 189.97999572753906,131.64999389648438 C189.97999572753906,131.64999389648438 189.97999572753906,131.63999938964844 189.97999572753906,131.63999938964844 C195.24000549316406,130.08999633789062 208.7100067138672,121.04000091552734 206.19000244140625,106.18000030517578 C206.14999389648438,105.75 206.0800018310547,105.33000183105469 205.97000122070312,104.91999816894531 C205.92999267578125,104.75 205.8699951171875,104.58999633789062 205.82000732421875,104.43000030517578 C205.77999877929688,104.27999877929688 205.75,104.12999725341797 205.7100067138672,103.9800033569336"></path></g><g opacity="1" transform="matrix(1,0,0,1,0,0)"><path fill="rgb(255,255,255)" fill-opacity="1" d=" M163.47000122070312,116.2699966430664 C159.42999267578125,117.3499984741211 155.25999450683594,114.9000015258789 154.16000366210938,110.77999877929688 C153.0500030517578,106.66999816894531 155.44000244140625,102.44999694824219 159.47999572753906,101.37000274658203 C163.52000427246094,100.27999877929688 167.69000244140625,102.75 168.7899932861328,106.86000061035156 C169.89999389648438,110.9800033569336 167.50999450683594,115.18000030517578 163.47000122070312,116.2699966430664"></path></g></g></g></g></svg>