<svg xmlns="http://www.w3.org/2000/svg" viewBox="0 0 552 420" width="552" height="420" class="lottie-asset-module--lottieSvg--1Hi01" preserveAspectRatio="xMidYMid meet" style="width: 100%; height: 100%; transform: translate3d(0px, 0px, 0px);"><defs><clipPath id="__lottie_element_651"><rect width="552" height="420" x="0" y="0"></rect></clipPath></defs><g clip-path="url(#__lottie_element_651)"><g class="car" transform="matrix(1,0,0,1,0,0)" opacity="1" style="display: block;"><g opacity="1" transform="matrix(1,0,0,1,276.51800537109375,254.16700744628906)"><g opacity="1" transform="matrix(2,0,0,2,0,0)"><path fill="rgb(21,56,79)" fill-opacity="1" d=" M-73.21700286865234,4.873000144958496 C-73.21700286865234,4.873000144958496 73.21700286865234,4.873000144958496 73.21700286865234,4.873000144958496 C74.46299743652344,4.873000144958496 75.46900177001953,3.871000051498413 75.46900177001953,2.630000114440918 C75.46900177001953,2.630000114440918 75.46900177001953,-4.873000144958496 75.46900177001953,-4.873000144958496 C75.46900177001953,-4.873000144958496 -75.46900177001953,-4.873000144958496 -75.46900177001953,-4.873000144958496 C-75.46900177001953,-4.873000144958496 -75.46900177001953,2.630000114440918 -75.46900177001953,2.630000114440918 C-75.46900177001953,3.871000051498413 -74.46299743652344,4.873000144958496 -73.21700286865234,4.873000144958496z"></path></g></g><g opacity="1" transform="matrix(1,0,0,1,276.0580139160156,167.01100158691406)"><g opacity="1" transform="matrix(2,0,0,2,0,0)"><path fill="rgb(21,56,79)" fill-opacity="1" d=" M66.01000213623047,-38.96500015258789 C66.01000213623047,-38.96500015258789 -66.01000213623047,-38.96500015258789 -66.01000213623047,-38.96500015258789 C-66.01000213623047,-38.96500015258789 -66.01000213623047,38.96500015258789 -66.01000213623047,38.96500015258789 C-66.01000213623047,38.96500015258789 66.01000213623047,38.96500015258789 66.01000213623047,38.96500015258789 C66.01000213623047,38.96500015258789 66.01000213623047,-38.96500015258789 66.01000213623047,-38.96500015258789z"></path></g></g><g opacity="1" transform="matrix(1,0,0,1,276.0199890136719,302.89599609375)"><g opacity="1" transform="matrix(2,0,0,2,0,0)"><path fill="rgb(21,56,79)" fill-opacity="1" d=" M-39.11899948120117,2.1670000553131104 C-39.11899948120117,2.1670000553131104 39.11899948120117,2.1670000553131104 39.11899948120117,2.1670000553131104 C40.31700134277344,2.1670000553131104 41.29499816894531,1.1929999589920044 41.29499816894531,0 C41.29499816894531,-1.1929999589920044 40.31700134277344,-2.1670000553131104 39.11899948120117,-2.1670000553131104 C39.11899948120117,-2.1670000553131104 -39.11899948120117,-2.1670000553131104 -39.11899948120117,-2.1670000553131104 C-40.31700134277344,-2.1670000553131104 -41.29499816894531,-1.1929999589920044 -41.29499816894531,0 C-41.29499816894531,1.1929999589920044 -40.31700134277344,2.1670000553131104 -39.11899948120117,2.1670000553131104z"></path></g></g><g opacity="1" transform="matrix(1,0,0,1,276.0199890136719,285.58099365234375)"><g opacity="1" transform="matrix(2,0,0,2,0,0)"><path fill="rgb(21,56,79)" fill-opacity="1" d=" M-39.11899948120117,2.1670000553131104 C-39.11899948120117,2.1670000553131104 39.11899948120117,2.1670000553131104 39.11899948120117,2.1670000553131104 C40.31700134277344,2.1670000553131104 41.29499816894531,1.1929999589920044 41.29499816894531,0 C41.29499816894531,-1.1929999589920044 40.31700134277344,-2.1670000553131104 39.11899948120117,-2.1670000553131104 C39.11899948120117,-2.1670000553131104 -39.11899948120117,-2.1670000553131104 -39.11899948120117,-2.1670000553131104 C-40.31700134277344,-2.1670000553131104 -41.29499816894531,-1.1929999589920044 -41.29499816894531,0 C-41.29499816894531,1.1929999589920044 -40.31700134277344,2.1670000553131104 -39.11899948120117,2.1670000553131104z"></path></g></g><g opacity="1" transform="matrix(1,0,0,1,276.0199890136719,320.2120056152344)"><g opacity="1" transform="matrix(2,0,0,2,0,0)"><path fill="rgb(21,56,79)" fill-opacity="1" d=" M-39.11899948120117,2.1670000553131104 C-39.11899948120117,2.1670000553131104 39.11899948120117,2.1670000553131104 39.11899948120117,2.1670000553131104 C40.31700134277344,2.1670000553131104 41.29499816894531,1.1929999589920044 41.29499816894531,0 C41.29499816894531,-1.1929999589920044 40.31700134277344,-2.1670000553131104 39.11899948120117,-2.1670000553131104 C39.11899948120117,-2.1670000553131104 -39.11899948120117,-2.1670000553131104 -39.11899948120117,-2.1670000553131104 C-40.31700134277344,-2.1670000553131104 -41.29499816894531,-1.1929999589920044 -41.29499816894531,0 C-41.29499816894531,1.1929999589920044 -40.31700134277344,2.1670000553131104 -39.11899948120117,2.1670000553131104z"></path></g></g></g><g class="front" transform="matrix(1,0,0,1,276.0660095214844,249.30799865722656)" opacity="1" style="display: block;"><g opacity="1" transform="matrix(2,0,0,2,0,0)"><path fill="rgb(255,255,255)" fill-opacity="1" d=" M-9.779999732971191,2.434000015258789 C-9.779999732971191,2.434000015258789 9.779999732971191,2.434000015258789 9.779999732971191,2.434000015258789 C12.482000350952148,2.434000015258789 14.666999816894531,0.257999986410141 14.666999816894531,-2.434000015258789 C14.666999816894531,-2.434000015258789 -14.666999816894531,-2.434000015258789 -14.666999816894531,-2.434000015258789 C-14.666999816894531,0.257999986410141 -12.482000350952148,2.434000015258789 -9.779999732971191,2.434000015258789z"></path></g></g><g class="window" transform="matrix(1,0,0,1,276.0570068359375,167.00100708007812)" opacity="1" style="display: block;"><g opacity="1" transform="matrix(2,0,0,2,0,0)"><path fill="rgb(245,222,102)" fill-opacity="1" d=" M62.75199890136719,-35.7140007019043 C62.75199890136719,-35.7140007019043 -62.75199890136719,-35.7140007019043 -62.75199890136719,-35.7140007019043 C-62.75199890136719,-35.7140007019043 -62.75199890136719,35.7140007019043 -62.75199890136719,35.7140007019043 C-62.75199890136719,35.7140007019043 62.75199890136719,35.7140007019043 62.75199890136719,35.7140007019043 C62.75199890136719,35.7140007019043 62.75199890136719,-35.7140007019043 62.75199890136719,-35.7140007019043z"></path></g></g><g class="car" transform="matrix(1,0,0,1,217.38999938964844,222.21600341796875)" opacity="1" style="display: block;"><g opacity="1" transform="matrix(2,0,0,2,0,0)"><path fill="rgb(21,56,79)" fill-opacity="1" d=" M12.496999740600586,8.38599967956543 C12.496999740600586,8.38599967956543 16.847999572753906,8.38599967956543 16.847999572753906,8.38599967956543 C16.847999572753906,-0.8640000224113464 9.276000022888184,-8.38599967956543 -0.009999999776482582,-8.38599967956543 C-9.295999526977539,-8.38599967956543 -16.847999572753906,-0.8640000224113464 -16.847999572753906,8.38599967956543 C-16.847999572753906,8.38599967956543 -12.496999740600586,8.38599967956543 -12.496999740600586,8.38599967956543 C-12.496999740600586,1.5230000019073486 -6.889999866485596,-4.061999797821045 0,-4.061999797821045 C6.889999866485596,-4.061999797821045 12.496999740600586,1.5230000019073486 12.496999740600586,8.38599967956543z"></path></g></g><g class="lightOn" transform="matrix(1,0,0,1,150.5540008544922,303.33599853515625)" opacity="1" style="display: block;"><g opacity="1" transform="matrix(2,0,0,2,0,0)"><path fill="rgb(245,222,102)" fill-opacity="1" d=" M0,14.079999923706055 C7.809999942779541,14.079999923706055 14.135000228881836,7.78000020980835 14.135000228881836,0 C14.135000228881836,-7.78000020980835 7.809999942779541,-14.079999923706055 0,-14.079999923706055 C-7.809999942779541,-14.079999923706055 -14.135000228881836,-7.769999980926514 -14.135000228881836,0 C-14.135000228881836,7.769999980926514 -7.809999942779541,14.079999923706055 0,14.079999923706055z"></path></g></g><g class="lightOn" transform="matrix(1,0,0,1,401.55999755859375,303.33599853515625)" opacity="1" style="display: block;"><g opacity="1" transform="matrix(2,0,0,2,0,0)"><path fill="rgb(245,222,102)" fill-opacity="1" d=" M0,14.079999923706055 C7.809999942779541,14.079999923706055 14.135000228881836,7.78000020980835 14.135000228881836,0 C14.135000228881836,-7.78000020980835 7.809999942779541,-14.09000015258789 0,-14.079999923706055 C-7.809999942779541,-14.079999923706055 -14.135000228881836,-7.78000020980835 -14.135000228881836,0 C-14.135000228881836,7.78000020980835 -7.809999942779541,14.079999923706055 0,14.079999923706055z"></path></g></g><g class="lightOff" transform="matrix(1,0,0,1,150.5540008544922,303.33599853515625)" opacity="1" style="display: none;"><g opacity="1" transform="matrix(2,0,0,2,0,0)"><path fill="rgb(215,195,90)" fill-opacity="1" d=" M0,14.079999923706055 C7.809999942779541,14.079999923706055 14.135000228881836,7.78000020980835 14.135000228881836,0 C14.135000228881836,-7.78000020980835 7.809999942779541,-14.079999923706055 0,-14.079999923706055 C-7.809999942779541,-14.079999923706055 -14.135000228881836,-7.769999980926514 -14.135000228881836,0 C-14.135000228881836,7.769999980926514 -7.809999942779541,14.079999923706055 0,14.079999923706055z"></path></g></g><g class="lightOff" transform="matrix(1,0,0,1,401.55999755859375,303.33599853515625)" opacity="1" style="display: none;"><g opacity="1" transform="matrix(2,0,0,2,0,0)"><path fill="rgb(215,195,90)" fill-opacity="1" d=" M0,14.079999923706055 C7.809999942779541,14.079999923706055 14.135000228881836,7.78000020980835 14.135000228881836,0 C14.135000228881836,-7.78000020980835 7.809999942779541,-14.09000015258789 0,-14.079999923706055 C-7.809999942779541,-14.079999923706055 -14.135000228881836,-7.78000020980835 -14.135000228881836,0 C-14.135000228881836,7.78000020980835 -7.809999942779541,14.079999923706055 0,14.079999923706055z"></path></g></g><g class="dots" transform="matrix(1,0,0,1,0,0)" opacity="1" style="display: block;"><g opacity="1" transform="matrix(1,0,0,1,126.61399841308594,303.3349914550781)"><g opacity="1" transform="matrix(2,0,0,2,0,0)"><path fill="rgb(214,139,75)" fill-opacity="1" d=" M0,0.4099999964237213 C0.23000000417232513,0.4099999964237213 0.41200000047683716,0.2290000021457672 0.41200000047683716,0 C0.41200000047683716,-0.2290000021457672 0.2199999988079071,-0.4099999964237213 0,-0.4099999964237213 C-0.23000000417232513,-0.4099999964237213 -0.41200000047683716,-0.2290000021457672 -0.41200000047683716,0 C-0.41200000047683716,0.2290000021457672 -0.23000000417232513,0.4099999964237213 0,0.4099999964237213z"></path></g></g><g opacity="1" transform="matrix(1,0,0,1,174.49200439453125,303.3160095214844)"><g opacity="1" transform="matrix(2,0,0,2,0,0)"><path fill="rgb(214,139,75)" fill-opacity="1" d=" M0,0.4099999964237213 C0.23000000417232513,0.4099999964237213 0.41200000047683716,0.2290000021457672 0.41200000047683716,0 C0.41200000047683716,-0.2199999988079071 0.23000000417232513,-0.4000000059604645 0,-0.4099999964237213 C-0.23000000417232513,-0.4099999964237213 -0.41200000047683716,-0.2290000021457672 -0.41200000047683716,0 C-0.41200000047683716,0.2290000021457672 -0.23000000417232513,0.4099999964237213 0,0.4099999964237213z"></path></g></g><g opacity="1" transform="matrix(1,0,0,1,127.44000244140625,309.50201416015625)"><g opacity="1" transform="matrix(2,0,0,2,0,0)"><path fill="rgb(214,139,75)" fill-opacity="1" d=" M0.10499999672174454,0.39100000262260437 C0.32499998807907104,0.33399999141693115 0.44999998807907104,0.11500000208616257 0.3930000066757202,-0.10499999672174454 C0.335999995470047,-0.32499998807907104 0.10599999874830246,-0.4480000138282776 -0.10499999672174454,-0.39100000262260437 C-0.32499998807907104,-0.33399999141693115 -0.44999998807907104,-0.11500000208616257 -0.3930000066757202,0.10499999672174454 C-0.335999995470047,0.32499998807907104 -0.11500000208616257,0.4480000138282776 0.10499999672174454,0.39100000262260437z"></path></g></g><g opacity="1" transform="matrix(1,0,0,1,173.68899536132812,297.1499938964844)"><g opacity="1" transform="matrix(2,0,0,2,0,0)"><path fill="rgb(214,139,75)" fill-opacity="1" d=" M0.10499999672174454,0.39100000262260437 C0.32499998807907104,0.33399999141693115 0.44999998807907104,0.11500000208616257 0.3930000066757202,-0.10499999672174454 C0.335999995470047,-0.32499998807907104 0.11500000208616257,-0.4480000138282776 -0.10499999672174454,-0.39100000262260437 C-0.32499998807907104,-0.33399999141693115 -0.44999998807907104,-0.11500000208616257 -0.3930000066757202,0.10499999672174454 C-0.335999995470047,0.32499998807907104 -0.11500000208616257,0.4480000138282776 0.10499999672174454,0.39100000262260437z"></path></g></g><g opacity="1" transform="matrix(1,0,0,1,129.81500244140625,315.2539978027344)"><g opacity="1" transform="matrix(2,0,0,2,0,0)"><path fill="rgb(214,139,75)" fill-opacity="1" d=" M0.20100000500679016,0.3499999940395355 C0.4020000100135803,0.23499999940395355 0.4699999988079071,-0.013000000268220901 0.35499998927116394,-0.20399999618530273 C0.25,-0.39500001072883606 0,-0.460999995470047 -0.20100000500679016,-0.35600000619888306 C-0.4020000100135803,-0.2409999966621399 -0.4699999988079071,0.006000000052154064 -0.35499998927116394,0.19699999690055847 C-0.23999999463558197,0.3970000147819519 0.008999999612569809,0.4650000035762787 0.20100000500679016,0.3499999940395355z"></path></g></g><g opacity="1" transform="matrix(1,0,0,1,171.29299926757812,291.3909912109375)"><g opacity="1" transform="matrix(2,0,0,2,0,0)"><path fill="rgb(214,139,75)" fill-opacity="1" d=" M0.20100000500679016,0.3499999940395355 C0.4020000100135803,0.23499999940395355 0.4699999988079071,-0.013000000268220901 0.35499998927116394,-0.20399999618530273 C0.23999999463558197,-0.39500001072883606 -0.008999999612569809,-0.460999995470047 -0.20100000500679016,-0.35600000619888306 C-0.4020000100135803,-0.2409999966621399 -0.4699999988079071,0.006000000052154064 -0.35499998927116394,0.19699999690055847 C-0.23999999463558197,0.3970000147819519 0.008999999612569809,0.4650000035762787 0.20100000500679016,0.3499999940395355z"></path></g></g><g opacity="1" transform="matrix(1,0,0,1,133.62899780273438,320.1929931640625)"><g opacity="1" transform="matrix(2,0,0,2,0,0)"><path fill="rgb(214,139,75)" fill-opacity="1" d=" M0.2879999876022339,0.28600001335144043 C0.45100000500679016,0.13300000131130219 0.45100000500679016,-0.12399999797344208 0.2879999876022339,-0.28600001335144043 C0.13500000536441803,-0.4480000138282776 -0.125,-0.4480000138282776 -0.2879999876022339,-0.28600001335144043 C-0.45100000500679016,-0.13300000131130219 -0.45100000500679016,0.12399999797344208 -0.2879999876022339,0.28600001335144043 C-0.13500000536441803,0.4480000138282776 0.125,0.4480000138282776 0.2879999876022339,0.28600001335144043z"></path></g></g><g opacity="1" transform="matrix(1,0,0,1,167.4969940185547,286.4590148925781)"><g opacity="1" transform="matrix(2,0,0,2,0,0)"><path fill="rgb(214,139,75)" fill-opacity="1" d=" M0.2879999876022339,0.28600001335144043 C0.45100000500679016,0.13300000131130219 0.45100000500679016,-0.12399999797344208 0.2879999876022339,-0.28600001335144043 C0.125,-0.4480000138282776 -0.13500000536441803,-0.4480000138282776 -0.2879999876022339,-0.28600001335144043 C-0.45100000500679016,-0.13300000131130219 -0.45100000500679016,0.12399999797344208 -0.2879999876022339,0.28600001335144043 C-0.13500000536441803,0.4480000138282776 0.125,0.4480000138282776 0.2879999876022339,0.28600001335144043z"></path></g></g><g opacity="1" transform="matrix(1,0,0,1,138.59500122070312,323.9849853515625)"><g opacity="1" transform="matrix(2,0,0,2,0,0)"><path fill="rgb(214,139,75)" fill-opacity="1" d=" M0.35499998927116394,0.20399999618530273 C0.46000000834465027,0.013000000268220901 0.3930000066757202,-0.23499999940395355 0.20100000500679016,-0.3499999940395355 C0.008999999612569809,-0.4650000035762787 -0.23999999463558197,-0.3970000147819519 -0.35499998927116394,-0.19699999690055847 C-0.46000000834465027,-0.006000000052154064 -0.3930000066757202,0.2409999966621399 -0.20100000500679016,0.35600000619888306 C-0.008999999612569809,0.460999995470047 0.23999999463558197,0.39500001072883606 0.35499998927116394,0.20399999618530273z"></path></g></g><g opacity="1" transform="matrix(1,0,0,1,162.5330047607422,282.6730041503906)"><g opacity="1" transform="matrix(2,0,0,2,0,0)"><path fill="rgb(214,139,75)" fill-opacity="1" d=" M0.35499998927116394,0.20399999618530273 C0.46000000834465027,0.013000000268220901 0.3930000066757202,-0.23499999940395355 0.20100000500679016,-0.3499999940395355 C0.008999999612569809,-0.4650000035762787 -0.25,-0.3970000147819519 -0.35499998927116394,-0.19699999690055847 C-0.46000000834465027,-0.006000000052154064 -0.3930000066757202,0.2409999966621399 -0.20100000500679016,0.35600000619888306 C-0.008999999612569809,0.460999995470047 0.23999999463558197,0.39500001072883606 0.35499998927116394,0.20399999618530273z"></path></g></g><g opacity="1" transform="matrix(1,0,0,1,144.36399841308594,326.3599853515625)"><g opacity="1" transform="matrix(2,0,0,2,0,0)"><path fill="rgb(214,139,75)" fill-opacity="1" d=" M0.3930000066757202,0.10499999672174454 C0.44999998807907104,-0.11500000208616257 0.32499998807907104,-0.33500000834465027 0.10499999672174454,-0.3919999897480011 C-0.11500000208616257,-0.4490000009536743 -0.335999995470047,-0.3149999976158142 -0.3930000066757202,-0.10499999672174454 C-0.44999998807907104,0.11500000208616257 -0.32499998807907104,0.33399999141693115 -0.10499999672174454,0.39100000262260437 C0.11500000208616257,0.4480000138282776 0.335999995470047,0.32499998807907104 0.3930000066757202,0.10499999672174454z"></path></g></g><g opacity="1" transform="matrix(1,0,0,1,156.7449951171875,280.28900146484375)"><g opacity="1" transform="matrix(2,0,0,2,0,0)"><path fill="rgb(214,139,75)" fill-opacity="1" d=" M0.3930000066757202,0.10700000077486038 C0.44999998807907104,-0.11299999803304672 0.32499998807907104,-0.3330000042915344 0.10499999672174454,-0.38999998569488525 C-0.10599999874830246,-0.4569999873638153 -0.335999995470047,-0.3230000138282776 -0.3930000066757202,-0.10300000011920929 C-0.44999998807907104,0.11699999868869781 -0.32499998807907104,0.335999995470047 -0.10499999672174454,0.3930000066757202 C0.11500000208616257,0.44999998807907104 0.335999995470047,0.3269999921321869 0.3930000066757202,0.10700000077486038z"></path></g></g><g opacity="1" transform="matrix(1,0,0,1,150.572998046875,327.17999267578125)"><g opacity="1" transform="matrix(2,0,0,2,0,0)"><path fill="rgb(214,139,75)" fill-opacity="1" d=" M0.41200000047683716,0 C0.41200000047683716,-0.2290000021457672 0.23000000417232513,-0.4099999964237213 0,-0.4099999964237213 C-0.23000000417232513,-0.4099999964237213 -0.41200000047683716,-0.2290000021457672 -0.41200000047683716,0 C-0.41200000047683716,0.2290000021457672 -0.23000000417232513,0.4099999964237213 0,0.4099999964237213 C0.23000000417232513,0.4099999964237213 0.41200000047683716,0.2290000021457672 0.41200000047683716,0z"></path></g></g><g opacity="1" transform="matrix(1,0,0,1,150.55499267578125,279.4909973144531)"><g opacity="1" transform="matrix(2,0,0,2,0,0)"><path fill="rgb(214,139,75)" fill-opacity="1" d=" M0.41200000047683716,0 C0.41200000047683716,-0.2290000021457672 0.23000000417232513,-0.4099999964237213 0,-0.4099999964237213 C-0.23000000417232513,-0.4099999964237213 -0.41200000047683716,-0.2290000021457672 -0.41200000047683716,0 C-0.41200000047683716,0.2290000021457672 -0.23000000417232513,0.4099999964237213 0,0.4099999964237213 C0.23000000417232513,0.4099999964237213 0.41200000047683716,0.2290000021457672 0.41200000047683716,0z"></path></g></g><g opacity="1" transform="matrix(1,0,0,1,156.76499938964844,326.3590087890625)"><g opacity="1" transform="matrix(2,0,0,2,0,0)"><path fill="rgb(214,139,75)" fill-opacity="1" d=" M0.3930000066757202,-0.10499999672174454 C0.335999995470047,-0.32499998807907104 0.11500000208616257,-0.4480000138282776 -0.10499999672174454,-0.39100000262260437 C-0.32499998807907104,-0.33399999141693115 -0.44999998807907104,-0.11500000208616257 -0.3930000066757202,0.10499999672174454 C-0.335999995470047,0.32499998807907104 -0.11500000208616257,0.4480000138282776 0.10499999672174454,0.39100000262260437 C0.32499998807907104,0.33399999141693115 0.44999998807907104,0.11500000208616257 0.3930000066757202,-0.10499999672174454z"></path></g></g><g opacity="1" transform="matrix(1,0,0,1,144.36099243164062,280.2929992675781)"><g opacity="1" transform="matrix(2,0,0,2,0,0)"><path fill="rgb(214,139,75)" fill-opacity="1" d=" M0.39500001072883606,-0.10499999672174454 C0.33799999952316284,-0.32499998807907104 0.11599999666213989,-0.4480000138282776 -0.10400000214576721,-0.39100000262260437 C-0.3240000009536743,-0.33399999141693115 -0.4580000042915344,-0.11500000208616257 -0.39100000262260437,0.10499999672174454 C-0.33399999141693115,0.32499998807907104 -0.11299999803304672,0.4480000138282776 0.10700000077486038,0.39100000262260437 C0.3269999921321869,0.33399999141693115 0.4519999921321869,0.11500000208616257 0.39500001072883606,-0.10499999672174454z"></path></g></g><g opacity="1" transform="matrix(1,0,0,1,162.5330047607422,323.9729919433594)"><g opacity="1" transform="matrix(2,0,0,2,0,0)"><path fill="rgb(214,139,75)" fill-opacity="1" d=" M0.35499998927116394,-0.20000000298023224 C0.23999999463558197,-0.4000000059604645 -0.008999999612569809,-0.46799999475479126 -0.20100000500679016,-0.3529999852180481 C-0.4020000100135803,-0.23800000548362732 -0.4699999988079071,0.008999999612569809 -0.35499998927116394,0.20000000298023224 C-0.23999999463558197,0.4000000059604645 0.008999999612569809,0.46799999475479126 0.20100000500679016,0.3529999852180481 C0.4020000100135803,0.23800000548362732 0.4699999988079071,-0.008999999612569809 0.35499998927116394,-0.20000000298023224z"></path></g></g><g opacity="1" transform="matrix(1,0,0,1,138.58099365234375,282.6789855957031)"><g opacity="1" transform="matrix(2,0,0,2,0,0)"><path fill="rgb(214,139,75)" fill-opacity="1" d=" M0.35100001096725464,-0.20000000298023224 C0.23600000143051147,-0.4000000059604645 -0.012000000104308128,-0.46799999475479126 -0.20399999618530273,-0.3529999852180481 C-0.3959999978542328,-0.23800000548362732 -0.46299999952316284,0.008999999612569809 -0.3580000102519989,0.20000000298023224 C-0.24300000071525574,0.4000000059604645 0.006000000052154064,0.46799999475479126 0.1979999989271164,0.3529999852180481 C0.39899998903274536,0.23800000548362732 0.4659999907016754,-0.008999999612569809 0.35100001096725464,-0.20000000298023224z"></path></g></g><g opacity="1" transform="matrix(1,0,0,1,167.4969940185547,320.1929931640625)"><g opacity="1" transform="matrix(2,0,0,2,0,0)"><path fill="rgb(214,139,75)" fill-opacity="1" d=" M0.2879999876022339,-0.28600001335144043 C0.13500000536441803,-0.4480000138282776 -0.125,-0.4480000138282776 -0.2879999876022339,-0.28600001335144043 C-0.45100000500679016,-0.13300000131130219 -0.45100000500679016,0.12399999797344208 -0.2879999876022339,0.28600001335144043 C-0.13500000536441803,0.4480000138282776 0.125,0.4480000138282776 0.2879999876022339,0.28600001335144043 C0.45100000500679016,0.13300000131130219 0.45100000500679016,-0.12399999797344208 0.2879999876022339,-0.28600001335144043z"></path></g></g><g opacity="1" transform="matrix(1,0,0,1,133.61900329589844,286.4590148925781)"><g opacity="1" transform="matrix(2,0,0,2,0,0)"><path fill="rgb(214,139,75)" fill-opacity="1" d=" M0.2840000092983246,-0.28600001335144043 C0.13099999725818634,-0.4480000138282776 -0.12800000607967377,-0.4480000138282776 -0.29100000858306885,-0.28600001335144043 C-0.4440000057220459,-0.12399999797344208 -0.4440000057220459,0.13300000131130219 -0.29100000858306885,0.28600001335144043 C-0.1379999965429306,0.4480000138282776 0.12099999934434891,0.4480000138282776 0.2840000092983246,0.28600001335144043 C0.44699999690055847,0.13300000131130219 0.44699999690055847,-0.12399999797344208 0.2840000092983246,-0.28600001335144043z"></path></g></g><g opacity="1" transform="matrix(1,0,0,1,171.29299926757812,315.24798583984375)"><g opacity="1" transform="matrix(2,0,0,2,0,0)"><path fill="rgb(214,139,75)" fill-opacity="1" d=" M0.20100000500679016,-0.3529999852180481 C0.008999999612569809,-0.4580000042915344 -0.23999999463558197,-0.39100000262260437 -0.35499998927116394,-0.20000000298023224 C-0.46000000834465027,-0.008999999612569809 -0.3930000066757202,0.23800000548362732 -0.20100000500679016,0.3529999852180481 C-0.008999999612569809,0.4580000042915344 0.23999999463558197,0.39100000262260437 0.35499998927116394,0.20000000298023224 C0.46000000834465027,0.008999999612569809 0.3930000066757202,-0.23800000548362732 0.20100000500679016,-0.3529999852180481z"></path></g></g><g opacity="1" transform="matrix(1,0,0,1,129.8090057373047,291.40399169921875)"><g opacity="1" transform="matrix(2,0,0,2,0,0)"><path fill="rgb(214,139,75)" fill-opacity="1" d=" M0.20399999618530273,-0.3529999852180481 C0.012000000104308128,-0.4580000042915344 -0.23600000143051147,-0.39100000262260437 -0.35100001096725464,-0.20000000298023224 C-0.4659999907016754,-0.008999999612569809 -0.39899998903274536,0.23800000548362732 -0.1979999989271164,0.3529999852180481 C-0.006000000052154064,0.4580000042915344 0.24300000071525574,0.39100000262260437 0.3580000102519989,0.20000000298023224 C0.46299999952316284,0.008999999612569809 0.3959999978542328,-0.23800000548362732 0.20399999618530273,-0.3529999852180481z"></path></g></g><g opacity="1" transform="matrix(1,0,0,1,173.68899536132812,309.50201416015625)"><g opacity="1" transform="matrix(2,0,0,2,0,0)"><path fill="rgb(214,139,75)" fill-opacity="1" d=" M0.10499999672174454,-0.39100000262260437 C-0.11500000208616257,-0.4480000138282776 -0.335999995470047,-0.32499998807907104 -0.3930000066757202,-0.10499999672174454 C-0.44999998807907104,0.10499999672174454 -0.32499998807907104,0.33399999141693115 -0.10499999672174454,0.39100000262260437 C0.11500000208616257,0.4480000138282776 0.335999995470047,0.32499998807907104 0.3930000066757202,0.10499999672174454 C0.44999998807907104,-0.11500000208616257 0.32499998807907104,-0.33399999141693115 0.10499999672174454,-0.39100000262260437z"></path></g></g><g opacity="1" transform="matrix(1,0,0,1,127.41899871826172,297.1499938964844)"><g opacity="1" transform="matrix(2,0,0,2,0,0)"><path fill="rgb(214,139,75)" fill-opacity="1" d=" M0.10499999672174454,-0.39100000262260437 C-0.11500000208616257,-0.4480000138282776 -0.335999995470047,-0.32499998807907104 -0.3930000066757202,-0.10499999672174454 C-0.44999998807907104,0.11500000208616257 -0.31700000166893005,0.34299999475479126 -0.10599999874830246,0.39100000262260437 C0.11400000005960464,0.4480000138282776 0.335999995470047,0.32499998807907104 0.3930000066757202,0.10499999672174454 C0.44999998807907104,-0.11500000208616257 0.32499998807907104,-0.33399999141693115 0.10499999672174454,-0.39100000262260437z"></path></g></g></g><g class="dots" transform="matrix(1,0,0,1,0,0)" opacity="1" style="display: block;"><g opacity="1" transform="matrix(1,0,0,1,377.62298583984375,303.3349914550781)"><g opacity="1" transform="matrix(2,0,0,2,0,0)"><path fill="rgb(214,139,75)" fill-opacity="1" d=" M0,0.4099999964237213 C0.23000000417232513,0.4099999964237213 0.41200000047683716,0.2290000021457672 0.41200000047683716,0 C0.41200000047683716,-0.2290000021457672 0.23000000417232513,-0.4099999964237213 0,-0.4099999964237213 C-0.23000000417232513,-0.4099999964237213 -0.41200000047683716,-0.2290000021457672 -0.41200000047683716,0 C-0.41200000047683716,0.2290000021457672 -0.23000000417232513,0.4099999964237213 0,0.4099999964237213z"></path></g></g><g opacity="1" transform="matrix(1,0,0,1,425.5010070800781,303.3160095214844)"><g opacity="1" transform="matrix(2,0,0,2,0,0)"><path fill="rgb(214,139,75)" fill-opacity="1" d=" M0,0.4099999964237213 C0.23000000417232513,0.4099999964237213 0.41200000047683716,0.2290000021457672 0.41200000047683716,0 C0.41200000047683716,-0.2199999988079071 0.23000000417232513,-0.4099999964237213 0,-0.4099999964237213 C-0.23000000417232513,-0.4099999964237213 -0.41200000047683716,-0.2290000021457672 -0.41200000047683716,0 C-0.41200000047683716,0.2290000021457672 -0.23000000417232513,0.4099999964237213 0,0.4099999964237213z"></path></g></g><g opacity="1" transform="matrix(1,0,0,1,378.4469909667969,309.50201416015625)"><g opacity="1" transform="matrix(2,0,0,2,0,0)"><path fill="rgb(214,139,75)" fill-opacity="1" d=" M0.10499999672174454,0.39100000262260437 C0.32499998807907104,0.33399999141693115 0.45100000500679016,0.11500000208616257 0.3930000066757202,-0.10499999672174454 C0.33500000834465027,-0.32499998807907104 0.10599999874830246,-0.4480000138282776 -0.10499999672174454,-0.39100000262260437 C-0.32499998807907104,-0.33399999141693115 -0.45100000500679016,-0.11500000208616257 -0.3930000066757202,0.10499999672174454 C-0.33500000834465027,0.32499998807907104 -0.11500000208616257,0.4480000138282776 0.10499999672174454,0.39100000262260437z"></path></g></g><g opacity="1" transform="matrix(1,0,0,1,424.69500732421875,297.1499938964844)"><g opacity="1" transform="matrix(2,0,0,2,0,0)"><path fill="rgb(214,139,75)" fill-opacity="1" d=" M0.10499999672174454,0.39100000262260437 C0.32499998807907104,0.33399999141693115 0.45100000500679016,0.11500000208616257 0.3930000066757202,-0.10499999672174454 C0.33500000834465027,-0.32499998807907104 0.11500000208616257,-0.4480000138282776 -0.10499999672174454,-0.39100000262260437 C-0.32499998807907104,-0.33399999141693115 -0.45100000500679016,-0.11500000208616257 -0.3930000066757202,0.10499999672174454 C-0.33500000834465027,0.32499998807907104 -0.11500000208616257,0.4480000138282776 0.10499999672174454,0.39100000262260437z"></path></g></g><g opacity="1" transform="matrix(1,0,0,1,380.822998046875,315.2539978027344)"><g opacity="1" transform="matrix(2,0,0,2,0,0)"><path fill="rgb(214,139,75)" fill-opacity="1" d=" M0.20100000500679016,0.3499999940395355 C0.4020000100135803,0.23499999940395355 0.4699999988079071,-0.013000000268220901 0.35499998927116394,-0.20399999618530273 C0.25,-0.39500001072883606 0,-0.460999995470047 -0.20100000500679016,-0.35600000619888306 C-0.4020000100135803,-0.2409999966621399 -0.4699999988079071,0.006000000052154064 -0.35499998927116394,0.19699999690055847 C-0.23999999463558197,0.3970000147819519 0.008999999612569809,0.4650000035762787 0.20100000500679016,0.3499999940395355z"></path></g></g><g opacity="1" transform="matrix(1,0,0,1,422.2980041503906,291.3909912109375)"><g opacity="1" transform="matrix(2,0,0,2,0,0)"><path fill="rgb(214,139,75)" fill-opacity="1" d=" M0.20100000500679016,0.3499999940395355 C0.4020000100135803,0.23499999940395355 0.4699999988079071,-0.013000000268220901 0.35499998927116394,-0.20399999618530273 C0.23999999463558197,-0.39500001072883606 -0.008999999612569809,-0.460999995470047 -0.20100000500679016,-0.35600000619888306 C-0.4020000100135803,-0.2409999966621399 -0.4699999988079071,0.006000000052154064 -0.35499998927116394,0.19699999690055847 C-0.23999999463558197,0.3970000147819519 0.008999999612569809,0.4650000035762787 0.20100000500679016,0.3499999940395355z"></path></g></g><g opacity="1" transform="matrix(1,0,0,1,384.63800048828125,320.1929931640625)"><g opacity="1" transform="matrix(2,0,0,2,0,0)"><path fill="rgb(214,139,75)" fill-opacity="1" d=" M0.2879999876022339,0.28600001335144043 C0.45100000500679016,0.13300000131130219 0.45100000500679016,-0.12399999797344208 0.2879999876022339,-0.28600001335144043 C0.13500000536441803,-0.4480000138282776 -0.125,-0.4480000138282776 -0.2879999876022339,-0.28600001335144043 C-0.45100000500679016,-0.13300000131130219 -0.45100000500679016,0.12399999797344208 -0.2879999876022339,0.28600001335144043 C-0.13500000536441803,0.4480000138282776 0.125,0.4480000138282776 0.2879999876022339,0.28600001335144043z"></path></g></g><g opacity="1" transform="matrix(1,0,0,1,418.50299072265625,286.4590148925781)"><g opacity="1" transform="matrix(2,0,0,2,0,0)"><path fill="rgb(214,139,75)" fill-opacity="1" d=" M0.28700000047683716,0.28600001335144043 C0.44999998807907104,0.13300000131130219 0.44999998807907104,-0.12399999797344208 0.28700000047683716,-0.28600001335144043 C0.12399999797344208,-0.4480000138282776 -0.1340000033378601,-0.4480000138282776 -0.28700000047683716,-0.28600001335144043 C-0.44999998807907104,-0.13300000131130219 -0.44999998807907104,0.12399999797344208 -0.28700000047683716,0.28600001335144043 C-0.1340000033378601,0.4480000138282776 0.12399999797344208,0.4480000138282776 0.28700000047683716,0.28600001335144043z"></path></g></g><g opacity="1" transform="matrix(1,0,0,1,389.60198974609375,323.9849853515625)"><g opacity="1" transform="matrix(2,0,0,2,0,0)"><path fill="rgb(214,139,75)" fill-opacity="1" d=" M0.35499998927116394,0.20399999618530273 C0.46000000834465027,0.013000000268220901 0.3930000066757202,-0.23499999940395355 0.20100000500679016,-0.3499999940395355 C0.008999999612569809,-0.4650000035762787 -0.23999999463558197,-0.3970000147819519 -0.35499998927116394,-0.19699999690055847 C-0.46000000834465027,-0.006000000052154064 -0.3930000066757202,0.2409999966621399 -0.20100000500679016,0.35600000619888306 C-0.008999999612569809,0.460999995470047 0.23999999463558197,0.39500001072883606 0.35499998927116394,0.20399999618530273z"></path></g></g><g opacity="1" transform="matrix(1,0,0,1,413.5400085449219,282.6730041503906)"><g opacity="1" transform="matrix(2,0,0,2,0,0)"><path fill="rgb(214,139,75)" fill-opacity="1" d=" M0.35499998927116394,0.20399999618530273 C0.46000000834465027,0.013000000268220901 0.3930000066757202,-0.23499999940395355 0.20100000500679016,-0.3499999940395355 C0.008999999612569809,-0.4650000035762787 -0.23999999463558197,-0.3970000147819519 -0.35499998927116394,-0.19699999690055847 C-0.46000000834465027,-0.006000000052154064 -0.3930000066757202,0.2409999966621399 -0.20100000500679016,0.35600000619888306 C-0.008999999612569809,0.460999995470047 0.23999999463558197,0.39500001072883606 0.35499998927116394,0.20399999618530273z"></path></g></g><g opacity="1" transform="matrix(1,0,0,1,395.3699951171875,326.3599853515625)"><g opacity="1" transform="matrix(2,0,0,2,0,0)"><path fill="rgb(214,139,75)" fill-opacity="1" d=" M0.3930000066757202,0.10499999672174454 C0.44999998807907104,-0.11500000208616257 0.32499998807907104,-0.33500000834465027 0.10499999672174454,-0.3919999897480011 C-0.10599999874830246,-0.4490000009536743 -0.335999995470047,-0.3149999976158142 -0.3930000066757202,-0.10499999672174454 C-0.44999998807907104,0.11500000208616257 -0.32499998807907104,0.33399999141693115 -0.10499999672174454,0.39100000262260437 C0.11500000208616257,0.4480000138282776 0.335999995470047,0.32499998807907104 0.3930000066757202,0.10499999672174454z"></path></g></g><g opacity="1" transform="matrix(1,0,0,1,407.75,280.28900146484375)"><g opacity="1" transform="matrix(2,0,0,2,0,0)"><path fill="rgb(214,139,75)" fill-opacity="1" d=" M0.3930000066757202,0.10700000077486038 C0.44999998807907104,-0.11299999803304672 0.32499998807907104,-0.3330000042915344 0.10499999672174454,-0.38999998569488525 C-0.10599999874830246,-0.4569999873638153 -0.335999995470047,-0.3230000138282776 -0.3930000066757202,-0.10300000011920929 C-0.44999998807907104,0.11699999868869781 -0.32499998807907104,0.335999995470047 -0.10499999672174454,0.3930000066757202 C0.11500000208616257,0.44999998807907104 0.335999995470047,0.3269999921321869 0.3930000066757202,0.10700000077486038z"></path></g></g><g opacity="1" transform="matrix(1,0,0,1,401.58099365234375,327.17999267578125)"><g opacity="1" transform="matrix(2,0,0,2,0,0)"><path fill="rgb(214,139,75)" fill-opacity="1" d=" M0.41200000047683716,0 C0.41200000047683716,-0.2290000021457672 0.23000000417232513,-0.4099999964237213 0,-0.4099999964237213 C-0.23000000417232513,-0.4099999964237213 -0.41200000047683716,-0.2290000021457672 -0.41200000047683716,0 C-0.41200000047683716,0.2290000021457672 -0.23000000417232513,0.4099999964237213 0,0.4099999964237213 C0.23000000417232513,0.4099999964237213 0.41200000047683716,0.2290000021457672 0.41200000047683716,0z"></path></g></g><g opacity="1" transform="matrix(1,0,0,1,401.55999755859375,279.4909973144531)"><g opacity="1" transform="matrix(2,0,0,2,0,0)"><path fill="rgb(214,139,75)" fill-opacity="1" d=" M0.41200000047683716,0 C0.41200000047683716,-0.2290000021457672 0.23000000417232513,-0.4099999964237213 0,-0.4099999964237213 C-0.23000000417232513,-0.4099999964237213 -0.41200000047683716,-0.2290000021457672 -0.41200000047683716,0 C-0.41200000047683716,0.2290000021457672 -0.23000000417232513,0.4099999964237213 0,0.4099999964237213 C0.23000000417232513,0.4099999964237213 0.41200000047683716,0.2290000021457672 0.41200000047683716,0z"></path></g></g><g opacity="1" transform="matrix(1,0,0,1,407.7720031738281,326.3590087890625)"><g opacity="1" transform="matrix(2,0,0,2,0,0)"><path fill="rgb(214,139,75)" fill-opacity="1" d=" M0.3930000066757202,-0.10499999672174454 C0.335999995470047,-0.32499998807907104 0.11500000208616257,-0.4480000138282776 -0.10499999672174454,-0.39100000262260437 C-0.32499998807907104,-0.33399999141693115 -0.44999998807907104,-0.11500000208616257 -0.3930000066757202,0.10499999672174454 C-0.335999995470047,0.32499998807907104 -0.11500000208616257,0.4480000138282776 0.10499999672174454,0.39100000262260437 C0.32499998807907104,0.33399999141693115 0.44999998807907104,0.11500000208616257 0.3930000066757202,-0.10499999672174454z"></path></g></g><g opacity="1" transform="matrix(1,0,0,1,395.3659973144531,280.2929992675781)"><g opacity="1" transform="matrix(2,0,0,2,0,0)"><path fill="rgb(214,139,75)" fill-opacity="1" d=" M0.39500001072883606,-0.10499999672174454 C0.33799999952316284,-0.32499998807907104 0.11599999666213989,-0.4480000138282776 -0.10400000214576721,-0.39100000262260437 C-0.3240000009536743,-0.33399999141693115 -0.4580000042915344,-0.11500000208616257 -0.39100000262260437,0.10499999672174454 C-0.33399999141693115,0.32499998807907104 -0.11299999803304672,0.4480000138282776 0.10700000077486038,0.39100000262260437 C0.3269999921321869,0.33399999141693115 0.4519999921321869,0.11500000208616257 0.39500001072883606,-0.10499999672174454z"></path></g></g><g opacity="1" transform="matrix(1,0,0,1,413.54400634765625,323.9729919433594)"><g opacity="1" transform="matrix(2,0,0,2,0,0)"><path fill="rgb(214,139,75)" fill-opacity="1" d=" M0.35199999809265137,-0.20000000298023224 C0.2370000034570694,-0.4000000059604645 -0.010999999940395355,-0.46799999475479126 -0.2029999941587448,-0.3529999852180481 C-0.40400001406669617,-0.23800000548362732 -0.4620000123977661,0.008999999612569809 -0.3569999933242798,0.20000000298023224 C-0.24199999868869781,0.4000000059604645 0.007000000216066837,0.46799999475479126 0.19900000095367432,0.3529999852180481 C0.4000000059604645,0.23800000548362732 0.46700000762939453,-0.008999999612569809 0.35199999809265137,-0.20000000298023224z"></path></g></g><g opacity="1" transform="matrix(1,0,0,1,389.5880126953125,282.6789855957031)"><g opacity="1" transform="matrix(2,0,0,2,0,0)"><path fill="rgb(214,139,75)" fill-opacity="1" d=" M0.35100001096725464,-0.20000000298023224 C0.23600000143051147,-0.4000000059604645 -0.012000000104308128,-0.46799999475479126 -0.20399999618530273,-0.3529999852180481 C-0.3959999978542328,-0.23800000548362732 -0.46299999952316284,0.008999999612569809 -0.3580000102519989,0.20000000298023224 C-0.24300000071525574,0.4000000059604645 0.006000000052154064,0.46799999475479126 0.1979999989271164,0.3529999852180481 C0.39899998903274536,0.23800000548362732 0.4659999907016754,-0.008999999612569809 0.35100001096725464,-0.20000000298023224z"></path></g></g><g opacity="1" transform="matrix(1,0,0,1,418.50299072265625,320.1929931640625)"><g opacity="1" transform="matrix(2,0,0,2,0,0)"><path fill="rgb(214,139,75)" fill-opacity="1" d=" M0.28700000047683716,-0.28600001335144043 C0.1340000033378601,-0.4480000138282776 -0.12399999797344208,-0.4480000138282776 -0.28700000047683716,-0.28600001335144043 C-0.44999998807907104,-0.13300000131130219 -0.44999998807907104,0.12399999797344208 -0.28700000047683716,0.28600001335144043 C-0.1340000033378601,0.4480000138282776 0.12399999797344208,0.4480000138282776 0.28700000047683716,0.28600001335144043 C0.44999998807907104,0.13300000131130219 0.44999998807907104,-0.12399999797344208 0.28700000047683716,-0.28600001335144043z"></path></g></g><g opacity="1" transform="matrix(1,0,0,1,384.63800048828125,286.4590148925781)"><g opacity="1" transform="matrix(2,0,0,2,0,0)"><path fill="rgb(214,139,75)" fill-opacity="1" d=" M0.2879999876022339,-0.28600001335144043 C0.13500000536441803,-0.4480000138282776 -0.125,-0.4480000138282776 -0.2879999876022339,-0.28600001335144043 C-0.45100000500679016,-0.12399999797344208 -0.45100000500679016,0.13300000131130219 -0.2879999876022339,0.28600001335144043 C-0.13500000536441803,0.4480000138282776 0.125,0.4480000138282776 0.2879999876022339,0.28600001335144043 C0.45100000500679016,0.13300000131130219 0.45100000500679016,-0.12399999797344208 0.2879999876022339,-0.28600001335144043z"></path></g></g><g opacity="1" transform="matrix(1,0,0,1,422.29901123046875,315.24798583984375)"><g opacity="1" transform="matrix(2,0,0,2,0,0)"><path fill="rgb(214,139,75)" fill-opacity="1" d=" M0.20100000500679016,-0.3529999852180481 C0.008999999612569809,-0.4580000042915344 -0.23999999463558197,-0.39100000262260437 -0.35499998927116394,-0.20000000298023224 C-0.46000000834465027,-0.008999999612569809 -0.3930000066757202,0.23800000548362732 -0.20100000500679016,0.3529999852180481 C-0.008999999612569809,0.4580000042915344 0.23999999463558197,0.39100000262260437 0.35499998927116394,0.20000000298023224 C0.46000000834465027,0.008999999612569809 0.3930000066757202,-0.23800000548362732 0.20100000500679016,-0.3529999852180481z"></path></g></g><g opacity="1" transform="matrix(1,0,0,1,380.822998046875,291.40399169921875)"><g opacity="1" transform="matrix(2,0,0,2,0,0)"><path fill="rgb(214,139,75)" fill-opacity="1" d=" M0.20100000500679016,-0.3529999852180481 C0.008999999612569809,-0.4580000042915344 -0.23999999463558197,-0.39100000262260437 -0.35499998927116394,-0.20000000298023224 C-0.46000000834465027,-0.008999999612569809 -0.3930000066757202,0.23800000548362732 -0.20100000500679016,0.3529999852180481 C-0.008999999612569809,0.4580000042915344 0.23999999463558197,0.39100000262260437 0.35499998927116394,0.20000000298023224 C0.46000000834465027,0.008999999612569809 0.3930000066757202,-0.23800000548362732 0.20100000500679016,-0.3529999852180481z"></path></g></g><g opacity="1" transform="matrix(1,0,0,1,424.69500732421875,309.50201416015625)"><g opacity="1" transform="matrix(2,0,0,2,0,0)"><path fill="rgb(214,139,75)" fill-opacity="1" d=" M0.10499999672174454,-0.39100000262260437 C-0.11500000208616257,-0.4480000138282776 -0.33500000834465027,-0.32499998807907104 -0.3930000066757202,-0.10499999672174454 C-0.45100000500679016,0.10499999672174454 -0.32499998807907104,0.33399999141693115 -0.10499999672174454,0.39100000262260437 C0.11500000208616257,0.4480000138282776 0.33500000834465027,0.32499998807907104 0.3930000066757202,0.10499999672174454 C0.45100000500679016,-0.11500000208616257 0.32499998807907104,-0.33399999141693115 0.10499999672174454,-0.39100000262260437z"></path></g></g><g opacity="1" transform="matrix(1,0,0,1,378.4280090332031,297.1499938964844)"><g opacity="1" transform="matrix(2,0,0,2,0,0)"><path fill="rgb(214,139,75)" fill-opacity="1" d=" M0.10499999672174454,-0.39100000262260437 C-0.11500000208616257,-0.4480000138282776 -0.33500000834465027,-0.32499998807907104 -0.3930000066757202,-0.10499999672174454 C-0.45100000500679016,0.11500000208616257 -0.31700000166893005,0.34299999475479126 -0.10599999874830246,0.39100000262260437 C0.11400000005960464,0.4480000138282776 0.33500000834465027,0.32499998807907104 0.3930000066757202,0.10499999672174454 C0.45100000500679016,-0.11500000208616257 0.32499998807907104,-0.33399999141693115 0.10499999672174454,-0.39100000262260437z"></path></g></g></g></g></svg>