<svg xmlns="http://www.w3.org/2000/svg" viewBox="0 0 552 420" width="552" height="420" class="lottie-asset-module--lottieSvg--1Hi01" preserveAspectRatio="xMidYMid meet" style="width: 100%; height: 100%; transform: translate3d(0px, 0px, 0px);"><defs><clipPath id="__lottie_element_683"><rect width="552" height="420" x="0" y="0"></rect></clipPath></defs><g clip-path="url(#__lottie_element_683)"><g class="car" transform="matrix(1,0,0,1,364.0320129394531,325.87298583984375)" opacity="1" style="display: block;"><g opacity="1" transform="matrix(2,0,0,2,0,0)"><path fill="rgb(21,56,79)" fill-opacity="1" d=" M-7.072000026702881,12.729000091552734 C-7.072000026702881,12.729000091552734 7.072000026702881,12.729000091552734 7.072000026702881,12.729000091552734 C7.876999855041504,12.729000091552734 8.520000457763672,12.08899974822998 8.520000457763672,11.286999702453613 C8.520000457763672,11.286999702453613 8.545000076293945,-17.979000091552734 8.545000076293945,-17.979000091552734 C8.545000076293945,-17.979000091552734 -8.494000434875488,-17.979000091552734 -8.494000434875488,-17.979000091552734 C-8.494000434875488,-17.979000091552734 -8.520000457763672,11.286999702453613 -8.520000457763672,11.286999702453613 C-8.520000457763672,12.079000473022461 -7.867000102996826,12.729000091552734 -7.072000026702881,12.729000091552734z"></path></g></g><g class="car" transform="matrix(1,0,0,1,187.85299682617188,325.87298583984375)" opacity="1" style="display: block;"><g opacity="1" transform="matrix(2,0,0,2,0,0)"><path fill="rgb(21,56,79)" fill-opacity="1" d=" M-7.072000026702881,12.729000091552734 C-7.072000026702881,12.729000091552734 7.072000026702881,12.729000091552734 7.072000026702881,12.729000091552734 C7.876999855041504,12.729000091552734 8.520000457763672,12.08899974822998 8.520000457763672,11.286999702453613 C8.520000457763672,11.286999702453613 8.456000328063965,-18.479000091552734 8.456000328063965,-18.479000091552734 C8.456000328063965,-18.479000091552734 -8.583000183105469,-18.479000091552734 -8.583000183105469,-18.479000091552734 C-8.583000183105469,-18.479000091552734 -8.520000457763672,11.286999702453613 -8.520000457763672,11.286999702453613 C-8.520000457763672,12.079000473022461 -7.867000102996826,12.729000091552734 -7.072000026702881,12.729000091552734z"></path></g></g><g class="car" transform="matrix(1,0,0,1,275.9129943847656,141.26100158691406)" opacity="1" style="display: block;"><g opacity="1" transform="matrix(2,0,0,2,0,0)"><path fill="rgb(21,56,79)" fill-opacity="1" d=" M51.14099884033203,-33.95800018310547 C51.14099884033203,-33.95800018310547 -51.14099884033203,-33.95800018310547 -51.14099884033203,-33.95800018310547 C-51.14099884033203,-33.95800018310547 -51.14099884033203,33.95800018310547 -51.14099884033203,33.95800018310547 C-51.14099884033203,33.95800018310547 51.14099884033203,33.95800018310547 51.14099884033203,33.95800018310547 C51.14099884033203,33.95800018310547 51.14099884033203,-33.95800018310547 51.14099884033203,-33.95800018310547z"></path></g></g><g class="house" transform="matrix(1,0,0,1,0,5)" opacity="1" style="display: block;"><g opacity="1" transform="matrix(1,0,0,1,275.90399169921875,136.27099609375)"><g opacity="1" transform="matrix(2,0,0,2,0,0)"><path fill="rgb(227,182,206)" fill-opacity="1" d=" M-48.29999923706055,31.128000259399414 C-48.29999923706055,31.128000259399414 48.29999923706055,31.128000259399414 48.29999923706055,31.128000259399414 C48.29999923706055,31.128000259399414 48.29999923706055,0 48.29999923706055,0 C48.29999923706055,0 -0.05700000002980232,-31.128000259399414 -0.05700000002980232,-31.128000259399414 C-0.05700000002980232,-31.128000259399414 -48.29999923706055,0 -48.29999923706055,0 C-48.29999923706055,0 -48.29999923706055,31.128000259399414 -48.29999923706055,31.128000259399414z" class="lottie-asset-module--yellowTheme_fill--2E7Zl"></path></g></g><g opacity="1" transform="matrix(1,0,0,1,355.45599365234375,107.97699737548828)"><g opacity="1" transform="matrix(2,0,0,2,0,0)"><path fill="rgb(227,182,206)" fill-opacity="1" d=" M8.52400016784668,-16.981000900268555 C8.52400016784668,-16.981000900268555 -8.52400016784668,-16.981000900268555 -8.52400016784668,-16.981000900268555 C-8.52400016784668,-16.981000900268555 -8.52400016784668,16.981000900268555 -8.52400016784668,16.981000900268555 C-8.52400016784668,16.981000900268555 8.52400016784668,16.981000900268555 8.52400016784668,16.981000900268555 C8.52400016784668,16.981000900268555 8.52400016784668,-16.981000900268555 8.52400016784668,-16.981000900268555z" class="lottie-asset-module--yellowTheme_fill--2E7Zl"></path></g></g></g><g class="car" transform="matrix(1,0,0,1,224.78599548339844,203.48500061035156)" opacity="1" style="display: block;"><g opacity="1" transform="matrix(2,0,0,2,0,0)"><path fill="rgb(21,56,79)" fill-opacity="1" d=" M-6.889999866485596,-0.009999999776482582 C-6.889999866485596,-3.7899999618530273 -3.805000066757202,-6.873000144958496 0,-6.873000144958496 C3.7950000762939453,-6.873000144958496 6.889999866485596,-3.7899999618530273 6.889999866485596,-0.009999999776482582 C6.889999866485596,3.7699999809265137 3.805000066757202,6.854000091552734 0,6.854000091552734 C-3.7950000762939453,6.854000091552734 -6.889999866485596,3.7699999809265137 -6.889999866485596,-0.009999999776482582z M-10.14900016784668,0 C-10.14900016784668,5.574999809265137 -5.5970001220703125,10.109000205993652 0,10.109000205993652 C5.5970001220703125,10.109000205993652 10.14900016784668,5.574999809265137 10.14900016784668,0 C10.14900016784668,-5.574999809265137 5.5970001220703125,-10.109000205993652 0,-10.109000205993652 C-5.5970001220703125,-10.109000205993652 -10.14900016784668,-5.574999809265137 -10.14900016784668,0z"></path></g></g><g class="car" transform="matrix(1,0,0,1,275.90399169921875,249.95999145507812)" opacity="1" style="display: block;"><g opacity="1" transform="matrix(2,0,0,2,0,0)"><path fill="rgb(21,56,79)" fill-opacity="1" d=" M68.18499755859375,-25.466999053955078 C68.18499755859375,-25.466999053955078 -68.18499755859375,-25.466999053955078 -68.18499755859375,-25.466999053955078 C-68.18499755859375,-25.466999053955078 -68.18499755859375,25.466999053955078 -68.18499755859375,25.466999053955078 C-68.18499755859375,25.466999053955078 68.18499755859375,25.466999053955078 68.18499755859375,25.466999053955078 C68.18499755859375,25.466999053955078 68.18499755859375,-25.466999053955078 68.18499755859375,-25.466999053955078z"></path></g></g><g class="frontThree" transform="matrix(1,0,0,1,275.91400146484375,248.90200805664062)" opacity="1" style="display: block;"><g opacity="1" transform="matrix(2,0,0,2,0,0)"><path fill="rgb(227,182,206)" fill-opacity="1" d=" M22.679000854492188,16.47100067138672 C22.679000854492188,16.47100067138672 -22.679000854492188,16.47100067138672 -22.679000854492188,16.47100067138672 C-23.857999801635742,16.47100067138672 -24.805999755859375,15.526000022888184 -24.805999755859375,14.361000061035156 C-24.805999755859375,14.361000061035156 -24.805999755859375,-14.35200023651123 -24.805999755859375,-14.35200023651123 C-24.805999755859375,-15.526000022888184 -23.857999801635742,-16.47100067138672 -22.679000854492188,-16.47100067138672 C-22.679000854492188,-16.47100067138672 22.679000854492188,-16.47100067138672 22.679000854492188,-16.47100067138672 C23.857999801635742,-16.47100067138672 24.805999755859375,-15.526000022888184 24.805999755859375,-14.35200023651123 C24.805999755859375,-14.35200023651123 24.805999755859375,14.35200023651123 24.805999755859375,14.35200023651123 C24.805999755859375,15.526000022888184 23.857999801635742,16.47100067138672 22.679000854492188,16.47100067138672z" class="lottie-asset-module--yellowTheme_fill--2E7Zl"></path></g></g><g class="frontTwo" transform="matrix(1,0,0,1,275.90399169921875,236.41600036621094)" opacity="0.5" style="display: block;"><g opacity="1" transform="matrix(2,0,0,2,0,0)"><path fill="rgb(255,255,255)" fill-opacity="1" d=" M24.81100082397461,-4.11899995803833 C24.81100082397461,-4.11899995803833 -24.81100082397461,-4.11899995803833 -24.81100082397461,-4.11899995803833 C-24.81100082397461,-4.11899995803833 -24.81100082397461,4.11899995803833 -24.81100082397461,4.11899995803833 C-24.81100082397461,4.11899995803833 24.81100082397461,4.11899995803833 24.81100082397461,4.11899995803833 C24.81100082397461,4.11899995803833 24.81100082397461,-4.11899995803833 24.81100082397461,-4.11899995803833z"></path></g></g><g class="frontOne" transform="matrix(1,0,0,1,242.46800231933594,259.3030090332031)" opacity="0.5" style="display: block;"><g opacity="1" transform="matrix(2,0,0,2,0,0)"><path fill="rgb(255,255,255)" fill-opacity="1" d=" M-3.9719998836517334,-2.3429999351501465 C-3.9719998836517334,-2.572000026702881 -3.7899999618530273,-2.753999948501587 -3.559999942779541,-2.753999948501587 C-3.559999942779541,-2.753999948501587 -3.559999942779541,-2.753999948501587 -3.559999942779541,-2.753999948501587 C-3.559999942779541,-2.753999948501587 3.559999942779541,-2.753999948501587 3.559999942779541,-2.753999948501587 C3.7899999618530273,-2.753999948501587 3.9719998836517334,-2.572000026702881 3.9719998836517334,-2.3429999351501465 C3.9719998836517334,-2.3429999351501465 3.9719998836517334,2.3429999351501465 3.9719998836517334,2.3429999351501465 C3.9719998836517334,2.572000026702881 3.7899999618530273,2.753999948501587 3.559999942779541,2.753999948501587 C3.559999942779541,2.753999948501587 -3.559999942779541,2.753999948501587 -3.559999942779541,2.753999948501587 C-3.7899999618530273,2.753999948501587 -3.9719998836517334,2.572000026702881 -3.9719998836517334,2.3429999351501465 C-3.9719998836517334,2.3429999351501465 -3.9719998836517334,-2.3429999351501465 -3.9719998836517334,-2.3429999351501465z"></path></g></g><g class="lightOn" transform="matrix(1,0,0,1,364.031982421875,250.3590087890625)" opacity="1" style="display: block;"><g opacity="1" transform="matrix(2,0,0,2,0,0)"><path fill="rgb(245,222,102)" fill-opacity="1" d=" M0,14.079999923706055 C7.809999942779541,14.079999923706055 14.135000228881836,7.78000020980835 14.135000228881836,0 C14.135000228881836,-7.769999980926514 7.809999942779541,-14.079999923706055 0,-14.079999923706055 C-7.809999942779541,-14.079999923706055 -14.135000228881836,-7.78000020980835 -14.135000228881836,0 C-14.135000228881836,7.78000020980835 -7.809999942779541,14.079999923706055 0,14.079999923706055z"></path></g></g><g class="lightOn" transform="matrix(1,0,0,1,187.85299682617188,250.3590087890625)" opacity="1" style="display: block;"><g opacity="1" transform="matrix(2,0,0,2,0,0)"><path fill="rgb(245,222,102)" fill-opacity="1" d=" M0,14.079999923706055 C7.809999942779541,14.079999923706055 14.135000228881836,7.78000020980835 14.135000228881836,0 C14.135000228881836,-7.769999980926514 7.809999942779541,-14.079999923706055 0,-14.079999923706055 C-7.809999942779541,-14.079999923706055 -14.135000228881836,-7.78000020980835 -14.135000228881836,0 C-14.135000228881836,7.78000020980835 -7.809999942779541,14.079999923706055 0,14.079999923706055z"></path></g></g><g class="lightOff" transform="matrix(1,0,0,1,364.031982421875,250.3590087890625)" opacity="1" style="display: none;"><g opacity="1" transform="matrix(2,0,0,2,0,0)"><path fill="rgb(215,195,90)" fill-opacity="1" d=" M0,14.079999923706055 C7.809999942779541,14.079999923706055 14.135000228881836,7.78000020980835 14.135000228881836,0 C14.135000228881836,-7.769999980926514 7.809999942779541,-14.079999923706055 0,-14.079999923706055 C-7.809999942779541,-14.079999923706055 -14.135000228881836,-7.78000020980835 -14.135000228881836,0 C-14.135000228881836,7.78000020980835 -7.809999942779541,14.079999923706055 0,14.079999923706055z"></path></g></g><g class="lightOff" transform="matrix(1,0,0,1,187.85299682617188,249.90512084960938)" opacity="1" style="display: none;"><g opacity="1" transform="matrix(2,0,0,2,0,0)"><path fill="rgb(215,195,90)" fill-opacity="1" d=" M0,14.079999923706055 C7.809999942779541,14.079999923706055 14.135000228881836,7.78000020980835 14.135000228881836,0 C14.135000228881836,-7.769999980926514 7.809999942779541,-14.079999923706055 0,-14.079999923706055 C-7.809999942779541,-14.079999923706055 -14.135000228881836,-7.78000020980835 -14.135000228881836,0 C-14.135000228881836,7.78000020980835 -7.809999942779541,14.079999923706055 0,14.079999923706055z"></path></g></g><g class="dots" transform="matrix(1,0,0,1,0,0.5)" opacity="1" style="display: block;"><g opacity="1" transform="matrix(1,0,0,1,340.0740051269531,249.88099670410156)"><g opacity="1" transform="matrix(2,0,0,2,0,0)"><path fill="rgb(215,143,80)" fill-opacity="1" d=" M0,0.4099999964237213 C0.23000000417232513,0.4099999964237213 0.41200000047683716,0.2290000021457672 0.41200000047683716,0 C0.41200000047683716,-0.2290000021457672 0.23000000417232513,-0.4099999964237213 0,-0.4099999964237213 C-0.23000000417232513,-0.4099999964237213 -0.41200000047683716,-0.2290000021457672 -0.41200000047683716,0 C-0.41200000047683716,0.2290000021457672 -0.23000000417232513,0.4099999964237213 0,0.4099999964237213z"></path></g></g><g opacity="1" transform="matrix(1,0,0,1,387.97198486328125,249.86000061035156)"><g opacity="1" transform="matrix(2,0,0,2,0,0)"><path fill="rgb(215,143,80)" fill-opacity="1" d=" M0,0.4099999964237213 C0.23000000417232513,0.4099999964237213 0.41200000047683716,0.2290000021457672 0.41200000047683716,0 C0.41200000047683716,-0.2290000021457672 0.23000000417232513,-0.4099999964237213 0,-0.4099999964237213 C-0.23000000417232513,-0.4099999964237213 -0.41200000047683716,-0.2290000021457672 -0.41200000047683716,0 C-0.41200000047683716,0.2290000021457672 -0.23000000417232513,0.4099999964237213 0,0.4099999964237213z"></path></g></g><g opacity="1" transform="matrix(1,0,0,1,340.9179992675781,256.0450134277344)"><g opacity="1" transform="matrix(2,0,0,2,0,0)"><path fill="rgb(215,143,80)" fill-opacity="1" d=" M0.10499999672174454,0.39100000262260437 C0.32499998807907104,0.33399999141693115 0.44999998807907104,0.11500000208616257 0.3930000066757202,-0.10499999672174454 C0.335999995470047,-0.32499998807907104 0.10599999874830246,-0.4480000138282776 -0.10499999672174454,-0.39100000262260437 C-0.32499998807907104,-0.33399999141693115 -0.44999998807907104,-0.11500000208616257 -0.3930000066757202,0.10499999672174454 C-0.335999995470047,0.32499998807907104 -0.11500000208616257,0.4480000138282776 0.10499999672174454,0.39100000262260437z"></path></g></g><g opacity="1" transform="matrix(1,0,0,1,387.1669921875,243.69200134277344)"><g opacity="1" transform="matrix(2,0,0,2,0,0)"><path fill="rgb(215,143,80)" fill-opacity="1" d=" M0.10499999672174454,0.3930000066757202 C0.32499998807907104,0.335999995470047 0.44999998807907104,0.11699999868869781 0.3930000066757202,-0.10300000011920929 C0.335999995470047,-0.3230000138282776 0.10599999874830246,-0.4569999873638153 -0.10499999672174454,-0.38999998569488525 C-0.32499998807907104,-0.3330000042915344 -0.44999998807907104,-0.11299999803304672 -0.3930000066757202,0.10700000077486038 C-0.335999995470047,0.3269999921321869 -0.11500000208616257,0.44999998807907104 0.10499999672174454,0.3930000066757202z"></path></g></g><g opacity="1" transform="matrix(1,0,0,1,343.29400634765625,261.7969970703125)"><g opacity="1" transform="matrix(2,0,0,2,0,0)"><path fill="rgb(215,143,80)" fill-opacity="1" d=" M0.20100000500679016,0.3499999940395355 C0.4020000100135803,0.23499999940395355 0.4699999988079071,-0.013000000268220901 0.35499998927116394,-0.20399999618530273 C0.23999999463558197,-0.39500001072883606 -0.008999999612569809,-0.460999995470047 -0.20100000500679016,-0.35600000619888306 C-0.4020000100135803,-0.2409999966621399 -0.4699999988079071,0.006000000052154064 -0.35499998927116394,0.19699999690055847 C-0.23999999463558197,0.3970000147819519 0.008999999612569809,0.4650000035762787 0.20100000500679016,0.3499999940395355z"></path></g></g><g opacity="1" transform="matrix(1,0,0,1,384.7720031738281,237.93299865722656)"><g opacity="1" transform="matrix(2,0,0,2,0,0)"><path fill="rgb(215,143,80)" fill-opacity="1" d=" M0.20100000500679016,0.3499999940395355 C0.4020000100135803,0.23499999940395355 0.4699999988079071,-0.013000000268220901 0.35499998927116394,-0.20399999618530273 C0.23999999463558197,-0.39500001072883606 -0.008999999612569809,-0.460999995470047 -0.20100000500679016,-0.35600000619888306 C-0.4020000100135803,-0.2409999966621399 -0.4699999988079071,0.006000000052154064 -0.35499998927116394,0.19699999690055847 C-0.23999999463558197,0.3970000147819519 0.008999999612569809,0.4650000035762787 0.20100000500679016,0.3499999940395355z"></path></g></g><g opacity="1" transform="matrix(1,0,0,1,347.1130065917969,266.7349853515625)"><g opacity="1" transform="matrix(2,0,0,2,0,0)"><path fill="rgb(215,143,80)" fill-opacity="1" d=" M0.28600001335144043,0.28600001335144043 C0.4490000009536743,0.13300000131130219 0.4490000009536743,-0.12399999797344208 0.28600001335144043,-0.28600001335144043 C0.12300000339746475,-0.4480000138282776 -0.13600000739097595,-0.4480000138282776 -0.289000004529953,-0.28600001335144043 C-0.4519999921321869,-0.13300000131130219 -0.44200000166893005,0.12399999797344208 -0.289000004529953,0.28600001335144043 C-0.13600000739097595,0.4480000138282776 0.12300000339746475,0.4480000138282776 0.28600001335144043,0.28600001335144043z"></path></g></g><g opacity="1" transform="matrix(1,0,0,1,380.9570007324219,233.0050048828125)"><g opacity="1" transform="matrix(2,0,0,2,0,0)"><path fill="rgb(215,143,80)" fill-opacity="1" d=" M0.2879999876022339,0.28600001335144043 C0.45100000500679016,0.13300000131130219 0.45100000500679016,-0.12399999797344208 0.2879999876022339,-0.28600001335144043 C0.13500000536441803,-0.4480000138282776 -0.125,-0.4480000138282776 -0.2879999876022339,-0.28600001335144043 C-0.45100000500679016,-0.13300000131130219 -0.45100000500679016,0.12399999797344208 -0.2879999876022339,0.28600001335144043 C-0.13500000536441803,0.4480000138282776 0.125,0.4480000138282776 0.2879999876022339,0.28600001335144043z"></path></g></g><g opacity="1" transform="matrix(1,0,0,1,352.072998046875,270.5159912109375)"><g opacity="1" transform="matrix(2,0,0,2,0,0)"><path fill="rgb(215,143,80)" fill-opacity="1" d=" M0.35499998927116394,0.20000000298023224 C0.46000000834465027,0.008999999612569809 0.3930000066757202,-0.23800000548362732 0.20100000500679016,-0.3529999852180481 C0.008999999612569809,-0.4580000042915344 -0.23999999463558197,-0.39100000262260437 -0.35499998927116394,-0.20000000298023224 C-0.46000000834465027,-0.008999999612569809 -0.3930000066757202,0.23800000548362732 -0.20100000500679016,0.3529999852180481 C-0.008999999612569809,0.4580000042915344 0.23999999463558197,0.39100000262260437 0.35499998927116394,0.20000000298023224z"></path></g></g><g opacity="1" transform="matrix(1,0,0,1,376.010986328125,229.20599365234375)"><g opacity="1" transform="matrix(2,0,0,2,0,0)"><path fill="rgb(215,143,80)" fill-opacity="1" d=" M0.35499998927116394,0.20000000298023224 C0.46000000834465027,0.008999999612569809 0.3930000066757202,-0.23800000548362732 0.20100000500679016,-0.3529999852180481 C0,-0.4580000042915344 -0.25,-0.39100000262260437 -0.35499998927116394,-0.20000000298023224 C-0.46000000834465027,-0.008999999612569809 -0.3930000066757202,0.23800000548362732 -0.20100000500679016,0.3529999852180481 C-0.008999999612569809,0.4580000042915344 0.23999999463558197,0.39100000262260437 0.35499998927116394,0.20000000298023224z"></path></g></g><g opacity="1" transform="matrix(1,0,0,1,357.8420104980469,272.9010009765625)"><g opacity="1" transform="matrix(2,0,0,2,0,0)"><path fill="rgb(215,143,80)" fill-opacity="1" d=" M0.3930000066757202,0.10499999672174454 C0.44999998807907104,-0.11500000208616257 0.32499998807907104,-0.33399999141693115 0.10499999672174454,-0.39100000262260437 C-0.11500000208616257,-0.4480000138282776 -0.335999995470047,-0.32499998807907104 -0.3930000066757202,-0.10499999672174454 C-0.44999998807907104,0.11500000208616257 -0.32499998807907104,0.33399999141693115 -0.10499999672174454,0.39100000262260437 C0.11500000208616257,0.4480000138282776 0.335999995470047,0.32499998807907104 0.3930000066757202,0.10499999672174454z"></path></g></g><g opacity="1" transform="matrix(1,0,0,1,370.2229919433594,226.81700134277344)"><g opacity="1" transform="matrix(2,0,0,2,0,0)"><path fill="rgb(215,143,80)" fill-opacity="1" d=" M0.3930000066757202,0.10499999672174454 C0.45100000500679016,-0.11500000208616257 0.32499998807907104,-0.33500000834465027 0.10499999672174454,-0.3919999897480011 C-0.11500000208616257,-0.4490000009536743 -0.33500000834465027,-0.3149999976158142 -0.3930000066757202,-0.10499999672174454 C-0.45100000500679016,0.11500000208616257 -0.32499998807907104,0.33399999141693115 -0.10499999672174454,0.39100000262260437 C0.11500000208616257,0.4480000138282776 0.33500000834465027,0.32499998807907104 0.3930000066757202,0.10499999672174454z"></path></g></g><g opacity="1" transform="matrix(1,0,0,1,364.0320129394531,273.7239990234375)"><g opacity="1" transform="matrix(2,0,0,2,0,0)"><path fill="rgb(215,143,80)" fill-opacity="1" d=" M0.41200000047683716,0 C0.41200000047683716,-0.2290000021457672 0.23000000417232513,-0.4099999964237213 0,-0.4099999964237213 C-0.2199999988079071,-0.4099999964237213 -0.4020000100135803,-0.2290000021457672 -0.41200000047683716,0 C-0.41200000047683716,0.2290000021457672 -0.23000000417232513,0.4099999964237213 0,0.4099999964237213 C0.23000000417232513,0.4099999964237213 0.41200000047683716,0.2290000021457672 0.41200000047683716,0z"></path></g></g><g opacity="1" transform="matrix(1,0,0,1,364.0320129394531,226.01800537109375)"><g opacity="1" transform="matrix(2,0,0,2,0,0)"><path fill="rgb(215,143,80)" fill-opacity="1" d=" M0.41200000047683716,0 C0.41200000047683716,-0.2290000021457672 0.23000000417232513,-0.4099999964237213 0,-0.4099999964237213 C-0.23000000417232513,-0.4099999964237213 -0.41200000047683716,-0.2290000021457672 -0.41200000047683716,0 C-0.41200000047683716,0.2290000021457672 -0.23000000417232513,0.4099999964237213 0,0.4099999964237213 C0.23000000417232513,0.4099999964237213 0.41200000047683716,0.2290000021457672 0.41200000047683716,0z"></path></g></g><g opacity="1" transform="matrix(1,0,0,1,370.239990234375,272.9010009765625)"><g opacity="1" transform="matrix(2,0,0,2,0,0)"><path fill="rgb(215,143,80)" fill-opacity="1" d=" M0.39500001072883606,-0.10499999672174454 C0.3370000123977661,-0.32499998807907104 0.11599999666213989,-0.4480000138282776 -0.10400000214576721,-0.39100000262260437 C-0.3240000009536743,-0.33399999141693115 -0.4580000042915344,-0.11500000208616257 -0.39100000262260437,0.10499999672174454 C-0.3330000042915344,0.32499998807907104 -0.11299999803304672,0.4480000138282776 0.10700000077486038,0.39100000262260437 C0.3269999921321869,0.33399999141693115 0.453000009059906,0.11500000208616257 0.39500001072883606,-0.10499999672174454z"></path></g></g><g opacity="1" transform="matrix(1,0,0,1,357.8240051269531,226.83599853515625)"><g opacity="1" transform="matrix(2,0,0,2,0,0)"><path fill="rgb(215,143,80)" fill-opacity="1" d=" M0.3930000066757202,-0.10499999672174454 C0.33500000834465027,-0.32499998807907104 0.11400000005960464,-0.4480000138282776 -0.10599999874830246,-0.39100000262260437 C-0.31700000166893005,-0.33399999141693115 -0.45100000500679016,-0.11500000208616257 -0.3930000066757202,0.10499999672174454 C-0.33500000834465027,0.32499998807907104 -0.11500000208616257,0.4480000138282776 0.10499999672174454,0.39100000262260437 C0.32499998807907104,0.33399999141693115 0.45100000500679016,0.11500000208616257 0.3930000066757202,-0.10499999672174454z"></path></g></g><g opacity="1" transform="matrix(1,0,0,1,376.010986328125,270.5159912109375)"><g opacity="1" transform="matrix(2,0,0,2,0,0)"><path fill="rgb(215,143,80)" fill-opacity="1" d=" M0.35499998927116394,-0.20000000298023224 C0.23999999463558197,-0.4000000059604645 -0.008999999612569809,-0.46799999475479126 -0.20100000500679016,-0.3529999852180481 C-0.4020000100135803,-0.23800000548362732 -0.4699999988079071,0.008999999612569809 -0.35499998927116394,0.20000000298023224 C-0.23999999463558197,0.4000000059604645 0.008999999612569809,0.46799999475479126 0.20100000500679016,0.3529999852180481 C0.4020000100135803,0.23800000548362732 0.4699999988079071,-0.008999999612569809 0.35499998927116394,-0.20000000298023224z"></path></g></g><g opacity="1" transform="matrix(1,0,0,1,352.0589904785156,229.2239990234375)"><g opacity="1" transform="matrix(2,0,0,2,0,0)"><path fill="rgb(215,143,80)" fill-opacity="1" d=" M0.35100001096725464,-0.20000000298023224 C0.23600000143051147,-0.4000000059604645 -0.012000000104308128,-0.46799999475479126 -0.20399999618530273,-0.3529999852180481 C-0.3959999978542328,-0.24799999594688416 -0.46299999952316284,0 -0.3580000102519989,0.20000000298023224 C-0.24300000071525574,0.4000000059604645 0.006000000052154064,0.46799999475479126 0.1979999989271164,0.3529999852180481 C0.39899998903274536,0.23800000548362732 0.4659999907016754,-0.008999999612569809 0.35100001096725464,-0.20000000298023224z"></path></g></g><g opacity="1" transform="matrix(1,0,0,1,380.9750061035156,266.7139892578125)"><g opacity="1" transform="matrix(2,0,0,2,0,0)"><path fill="rgb(215,143,80)" fill-opacity="1" d=" M0.2879999876022339,-0.2849999964237213 C0.13500000536441803,-0.44699999690055847 -0.125,-0.44699999690055847 -0.2879999876022339,-0.2849999964237213 C-0.45100000500679016,-0.12300000339746475 -0.45100000500679016,0.13500000536441803 -0.2879999876022339,0.2879999876022339 C-0.13500000536441803,0.44999998807907104 0.125,0.4410000145435333 0.2879999876022339,0.2879999876022339 C0.45100000500679016,0.13500000536441803 0.45100000500679016,-0.12300000339746475 0.2879999876022339,-0.2849999964237213z"></path></g></g><g opacity="1" transform="matrix(1,0,0,1,347.09698486328125,233.0050048828125)"><g opacity="1" transform="matrix(2,0,0,2,0,0)"><path fill="rgb(215,143,80)" fill-opacity="1" d=" M0.2840000092983246,-0.28600001335144043 C0.13099999725818634,-0.4480000138282776 -0.12800000607967377,-0.4480000138282776 -0.29100000858306885,-0.28600001335144043 C-0.4440000057220459,-0.12399999797344208 -0.4440000057220459,0.13300000131130219 -0.29100000858306885,0.28600001335144043 C-0.1379999965429306,0.4480000138282776 0.12099999934434891,0.4480000138282776 0.2840000092983246,0.28600001335144043 C0.44699999690055847,0.13300000131130219 0.44699999690055847,-0.12399999797344208 0.2840000092983246,-0.28600001335144043z"></path></g></g><g opacity="1" transform="matrix(1,0,0,1,384.7650146484375,261.77099609375)"><g opacity="1" transform="matrix(2,0,0,2,0,0)"><path fill="rgb(215,143,80)" fill-opacity="1" d=" M0.20399999618530273,-0.3529999852180481 C0.012000000104308128,-0.4580000042915344 -0.23600000143051147,-0.39100000262260437 -0.35100001096725464,-0.20000000298023224 C-0.4659999907016754,0 -0.39899998903274536,0.24799999594688416 -0.1979999989271164,0.3529999852180481 C-0.006000000052154064,0.4580000042915344 0.24300000071525574,0.39100000262260437 0.3580000102519989,0.20000000298023224 C0.46299999952316284,0.008999999612569809 0.3959999978542328,-0.23800000548362732 0.20399999618530273,-0.3529999852180481z"></path></g></g><g opacity="1" transform="matrix(1,0,0,1,343.2869873046875,237.94900512695312)"><g opacity="1" transform="matrix(2,0,0,2,0,0)"><path fill="rgb(215,143,80)" fill-opacity="1" d=" M0.20399999618530273,-0.3529999852180481 C0.012000000104308128,-0.4580000042915344 -0.23600000143051147,-0.39100000262260437 -0.35100001096725464,-0.20000000298023224 C-0.4659999907016754,-0.008999999612569809 -0.39899998903274536,0.23800000548362732 -0.1979999989271164,0.3529999852180481 C-0.006000000052154064,0.4580000042915344 0.24300000071525574,0.39100000262260437 0.3580000102519989,0.20000000298023224 C0.46299999952316284,0.008999999612569809 0.3959999978542328,-0.23800000548362732 0.20399999618530273,-0.3529999852180481z"></path></g></g><g opacity="1" transform="matrix(1,0,0,1,387.1669921875,256.0249938964844)"><g opacity="1" transform="matrix(2,0,0,2,0,0)"><path fill="rgb(215,143,80)" fill-opacity="1" d=" M0.10499999672174454,-0.39100000262260437 C-0.11500000208616257,-0.4480000138282776 -0.335999995470047,-0.32499998807907104 -0.3930000066757202,-0.10499999672174454 C-0.44999998807907104,0.11500000208616257 -0.32499998807907104,0.33399999141693115 -0.10499999672174454,0.39100000262260437 C0.11500000208616257,0.4480000138282776 0.335999995470047,0.32499998807907104 0.3930000066757202,0.10499999672174454 C0.44999998807907104,-0.11500000208616257 0.32499998807907104,-0.33399999141693115 0.10499999672174454,-0.39100000262260437z"></path></g></g><g opacity="1" transform="matrix(1,0,0,1,340.89801025390625,243.6929931640625)"><g opacity="1" transform="matrix(2,0,0,2,0,0)"><path fill="rgb(215,143,80)" fill-opacity="1" d=" M0.10499999672174454,-0.39100000262260437 C-0.11500000208616257,-0.4480000138282776 -0.335999995470047,-0.32499998807907104 -0.3930000066757202,-0.10499999672174454 C-0.44999998807907104,0.11500000208616257 -0.31700000166893005,0.33399999141693115 -0.10599999874830246,0.39100000262260437 C0.11400000005960464,0.4480000138282776 0.335999995470047,0.32499998807907104 0.3930000066757202,0.10499999672174454 C0.44999998807907104,-0.11500000208616257 0.32499998807907104,-0.33399999141693115 0.10499999672174454,-0.39100000262260437z"></path></g></g></g><g class="dots" transform="matrix(1,0,0,1,0,0.5)" opacity="1" style="display: block;"><g opacity="1" transform="matrix(1,0,0,1,163.8939971923828,249.88099670410156)"><g opacity="1" transform="matrix(2,0,0,2,0,0)"><path fill="rgb(215,143,80)" fill-opacity="1" d=" M0,0.4099999964237213 C0.23000000417232513,0.4099999964237213 0.41200000047683716,0.2290000021457672 0.41200000047683716,0 C0.41200000047683716,-0.2290000021457672 0.23000000417232513,-0.4099999964237213 0,-0.4099999964237213 C-0.23000000417232513,-0.4099999964237213 -0.41200000047683716,-0.2290000021457672 -0.41200000047683716,0 C-0.41200000047683716,0.2290000021457672 -0.23000000417232513,0.4099999964237213 0,0.4099999964237213z"></path></g></g><g opacity="1" transform="matrix(1,0,0,1,211.79200744628906,249.86199951171875)"><g opacity="1" transform="matrix(2,0,0,2,0,0)"><path fill="rgb(215,143,80)" fill-opacity="1" d=" M0,0.4099999964237213 C0.23000000417232513,0.4099999964237213 0.41200000047683716,0.2290000021457672 0.41200000047683716,0 C0.41200000047683716,-0.2290000021457672 0.23000000417232513,-0.4099999964237213 0,-0.4099999964237213 C-0.23000000417232513,-0.4099999964237213 -0.41200000047683716,-0.2290000021457672 -0.41200000047683716,0 C-0.41200000047683716,0.2290000021457672 -0.23000000417232513,0.4099999964237213 0,0.4099999964237213z"></path></g></g><g opacity="1" transform="matrix(1,0,0,1,164.73800659179688,256.0450134277344)"><g opacity="1" transform="matrix(2,0,0,2,0,0)"><path fill="rgb(215,143,80)" fill-opacity="1" d=" M0.10499999672174454,0.39100000262260437 C0.32499998807907104,0.33399999141693115 0.44999998807907104,0.11500000208616257 0.3930000066757202,-0.10499999672174454 C0.32600000500679016,-0.32499998807907104 0.10599999874830246,-0.4480000138282776 -0.10499999672174454,-0.39100000262260437 C-0.32499998807907104,-0.33399999141693115 -0.44999998807907104,-0.11500000208616257 -0.3930000066757202,0.10499999672174454 C-0.335999995470047,0.32499998807907104 -0.11500000208616257,0.4480000138282776 0.10499999672174454,0.39100000262260437z"></path></g></g><g opacity="1" transform="matrix(1,0,0,1,210.98699951171875,243.69000244140625)"><g opacity="1" transform="matrix(2,0,0,2,0,0)"><path fill="rgb(215,143,80)" fill-opacity="1" d=" M0.10499999672174454,0.3930000066757202 C0.32499998807907104,0.335999995470047 0.44999998807907104,0.11699999868869781 0.3930000066757202,-0.10300000011920929 C0.335999995470047,-0.3230000138282776 0.10599999874830246,-0.4569999873638153 -0.10499999672174454,-0.38999998569488525 C-0.32499998807907104,-0.3330000042915344 -0.44999998807907104,-0.11299999803304672 -0.3930000066757202,0.10700000077486038 C-0.335999995470047,0.3269999921321869 -0.11500000208616257,0.44999998807907104 0.10499999672174454,0.3930000066757202z"></path></g></g><g opacity="1" transform="matrix(1,0,0,1,167.11500549316406,261.7969970703125)"><g opacity="1" transform="matrix(2,0,0,2,0,0)"><path fill="rgb(215,143,80)" fill-opacity="1" d=" M0.20100000500679016,0.3499999940395355 C0.4020000100135803,0.23499999940395355 0.4699999988079071,-0.013000000268220901 0.35499998927116394,-0.20399999618530273 C0.23999999463558197,-0.39500001072883606 -0.008999999612569809,-0.460999995470047 -0.20100000500679016,-0.35600000619888306 C-0.4020000100135803,-0.2409999966621399 -0.4699999988079071,0.006000000052154064 -0.35499998927116394,0.19699999690055847 C-0.23999999463558197,0.3970000147819519 0.008999999612569809,0.4650000035762787 0.20100000500679016,0.3499999940395355z"></path></g></g><g opacity="1" transform="matrix(1,0,0,1,208.58999633789062,237.93299865722656)"><g opacity="1" transform="matrix(2,0,0,2,0,0)"><path fill="rgb(215,143,80)" fill-opacity="1" d=" M0.20100000500679016,0.3499999940395355 C0.4020000100135803,0.23499999940395355 0.4699999988079071,-0.013000000268220901 0.35499998927116394,-0.20399999618530273 C0.23999999463558197,-0.39500001072883606 -0.008999999612569809,-0.460999995470047 -0.20100000500679016,-0.35600000619888306 C-0.4020000100135803,-0.2409999966621399 -0.4699999988079071,0.006000000052154064 -0.35499998927116394,0.19699999690055847 C-0.23999999463558197,0.3970000147819519 0.008999999612569809,0.4650000035762787 0.20100000500679016,0.3499999940395355z"></path></g></g><g opacity="1" transform="matrix(1,0,0,1,170.92799377441406,266.7349853515625)"><g opacity="1" transform="matrix(2,0,0,2,0,0)"><path fill="rgb(215,143,80)" fill-opacity="1" d=" M0.2879999876022339,0.28600001335144043 C0.45100000500679016,0.13300000131130219 0.45100000500679016,-0.12399999797344208 0.2879999876022339,-0.28600001335144043 C0.125,-0.4480000138282776 -0.13500000536441803,-0.4480000138282776 -0.2879999876022339,-0.28600001335144043 C-0.45100000500679016,-0.13300000131130219 -0.45100000500679016,0.12399999797344208 -0.2879999876022339,0.28600001335144043 C-0.13500000536441803,0.4480000138282776 0.125,0.4480000138282776 0.2879999876022339,0.28600001335144043z"></path></g></g><g opacity="1" transform="matrix(1,0,0,1,204.77699279785156,233.0050048828125)"><g opacity="1" transform="matrix(2,0,0,2,0,0)"><path fill="rgb(215,143,80)" fill-opacity="1" d=" M0.28700000047683716,0.28600001335144043 C0.44999998807907104,0.13300000131130219 0.44999998807907104,-0.12399999797344208 0.28700000047683716,-0.28600001335144043 C0.1340000033378601,-0.4480000138282776 -0.12399999797344208,-0.4480000138282776 -0.28700000047683716,-0.28600001335144043 C-0.44999998807907104,-0.13300000131130219 -0.44999998807907104,0.12399999797344208 -0.28700000047683716,0.28600001335144043 C-0.1340000033378601,0.4480000138282776 0.12399999797344208,0.4480000138282776 0.28700000047683716,0.28600001335144043z"></path></g></g><g opacity="1" transform="matrix(1,0,0,1,175.89300537109375,270.51800537109375)"><g opacity="1" transform="matrix(2,0,0,2,0,0)"><path fill="rgb(215,143,80)" fill-opacity="1" d=" M0.35499998927116394,0.20000000298023224 C0.46000000834465027,0.008999999612569809 0.3930000066757202,-0.23800000548362732 0.20100000500679016,-0.3529999852180481 C0.008999999612569809,-0.4580000042915344 -0.25,-0.39100000262260437 -0.35499998927116394,-0.20000000298023224 C-0.46000000834465027,-0.008999999612569809 -0.3930000066757202,0.23800000548362732 -0.20100000500679016,0.3529999852180481 C-0.008999999612569809,0.4580000042915344 0.23999999463558197,0.39100000262260437 0.35499998927116394,0.20000000298023224z"></path></g></g><g opacity="1" transform="matrix(1,0,0,1,199.83200073242188,229.20599365234375)"><g opacity="1" transform="matrix(2,0,0,2,0,0)"><path fill="rgb(215,143,80)" fill-opacity="1" d=" M0.35499998927116394,0.20000000298023224 C0.46000000834465027,0.008999999612569809 0.3930000066757202,-0.23800000548362732 0.20100000500679016,-0.3529999852180481 C0,-0.4580000042915344 -0.25,-0.39100000262260437 -0.35499998927116394,-0.20000000298023224 C-0.46000000834465027,-0.008999999612569809 -0.3930000066757202,0.23800000548362732 -0.20100000500679016,0.3529999852180481 C-0.008999999612569809,0.4580000042915344 0.23999999463558197,0.39100000262260437 0.35499998927116394,0.20000000298023224z"></path></g></g><g opacity="1" transform="matrix(1,0,0,1,181.66099548339844,272.9020080566406)"><g opacity="1" transform="matrix(2,0,0,2,0,0)"><path fill="rgb(215,143,80)" fill-opacity="1" d=" M0.3930000066757202,0.10499999672174454 C0.44999998807907104,-0.11500000208616257 0.32499998807907104,-0.33399999141693115 0.10499999672174454,-0.39100000262260437 C-0.11500000208616257,-0.4480000138282776 -0.335999995470047,-0.32499998807907104 -0.3930000066757202,-0.10499999672174454 C-0.44999998807907104,0.11500000208616257 -0.32499998807907104,0.33399999141693115 -0.10499999672174454,0.39100000262260437 C0.11500000208616257,0.4480000138282776 0.335999995470047,0.32499998807907104 0.3930000066757202,0.10499999672174454z"></path></g></g><g opacity="1" transform="matrix(1,0,0,1,194.04400634765625,226.81700134277344)"><g opacity="1" transform="matrix(2,0,0,2,0,0)"><path fill="rgb(215,143,80)" fill-opacity="1" d=" M0.3930000066757202,0.10499999672174454 C0.44999998807907104,-0.11500000208616257 0.32499998807907104,-0.33500000834465027 0.10499999672174454,-0.3919999897480011 C-0.11500000208616257,-0.4490000009536743 -0.335999995470047,-0.3149999976158142 -0.3930000066757202,-0.10499999672174454 C-0.44999998807907104,0.11500000208616257 -0.32499998807907104,0.33399999141693115 -0.10499999672174454,0.39100000262260437 C0.11500000208616257,0.4480000138282776 0.335999995470047,0.32499998807907104 0.3930000066757202,0.10499999672174454z"></path></g></g><g opacity="1" transform="matrix(1,0,0,1,187.8520050048828,273.7250061035156)"><g opacity="1" transform="matrix(2,0,0,2,0,0)"><path fill="rgb(215,143,80)" fill-opacity="1" d=" M0.41200000047683716,0 C0.41200000047683716,-0.2290000021457672 0.23000000417232513,-0.4099999964237213 0,-0.4099999964237213 C-0.2199999988079071,-0.4099999964237213 -0.4020000100135803,-0.2290000021457672 -0.41200000047683716,0 C-0.41200000047683716,0.2290000021457672 -0.23000000417232513,0.4099999964237213 0,0.4099999964237213 C0.23000000417232513,0.4099999964237213 0.41200000047683716,0.2290000021457672 0.41200000047683716,0z"></path></g></g><g opacity="1" transform="matrix(1,0,0,1,187.8520050048828,226.01800537109375)"><g opacity="1" transform="matrix(2,0,0,2,0,0)"><path fill="rgb(215,143,80)" fill-opacity="1" d=" M0.41200000047683716,0 C0.41200000047683716,-0.2290000021457672 0.23000000417232513,-0.4099999964237213 0,-0.4099999964237213 C-0.23000000417232513,-0.4099999964237213 -0.41200000047683716,-0.2290000021457672 -0.41200000047683716,0 C-0.41200000047683716,0.2290000021457672 -0.23000000417232513,0.4099999964237213 0,0.4099999964237213 C0.23000000417232513,0.4099999964237213 0.41200000047683716,0.2290000021457672 0.41200000047683716,0z"></path></g></g><g opacity="1" transform="matrix(1,0,0,1,194.0590057373047,272.9020080566406)"><g opacity="1" transform="matrix(2,0,0,2,0,0)"><path fill="rgb(215,143,80)" fill-opacity="1" d=" M0.39500001072883606,-0.10499999672174454 C0.33799999952316284,-0.32499998807907104 0.11599999666213989,-0.4480000138282776 -0.10400000214576721,-0.39100000262260437 C-0.3240000009536743,-0.33399999141693115 -0.4580000042915344,-0.11500000208616257 -0.39100000262260437,0.10499999672174454 C-0.33399999141693115,0.32499998807907104 -0.11299999803304672,0.4480000138282776 0.10700000077486038,0.39100000262260437 C0.3269999921321869,0.33399999141693115 0.4519999921321869,0.11500000208616257 0.39500001072883606,-0.10499999672174454z"></path></g></g><g opacity="1" transform="matrix(1,0,0,1,181.64300537109375,226.83599853515625)"><g opacity="1" transform="matrix(2,0,0,2,0,0)"><path fill="rgb(215,143,80)" fill-opacity="1" d=" M0.3930000066757202,-0.10499999672174454 C0.33500000834465027,-0.32499998807907104 0.11400000005960464,-0.4480000138282776 -0.10599999874830246,-0.39100000262260437 C-0.31700000166893005,-0.33399999141693115 -0.45100000500679016,-0.11500000208616257 -0.3930000066757202,0.10499999672174454 C-0.33500000834465027,0.32499998807907104 -0.11500000208616257,0.4480000138282776 0.10499999672174454,0.39100000262260437 C0.32499998807907104,0.33399999141693115 0.45100000500679016,0.11500000208616257 0.3930000066757202,-0.10499999672174454z"></path></g></g><g opacity="1" transform="matrix(1,0,0,1,199.83099365234375,270.5150146484375)"><g opacity="1" transform="matrix(2,0,0,2,0,0)"><path fill="rgb(215,143,80)" fill-opacity="1" d=" M0.35499998927116394,-0.20000000298023224 C0.23999999463558197,-0.4000000059604645 -0.008999999612569809,-0.46799999475479126 -0.20100000500679016,-0.3529999852180481 C-0.4020000100135803,-0.23800000548362732 -0.4699999988079071,0.008999999612569809 -0.35499998927116394,0.20000000298023224 C-0.23999999463558197,0.4000000059604645 0.008999999612569809,0.46799999475479126 0.20100000500679016,0.3529999852180481 C0.4020000100135803,0.23800000548362732 0.4699999988079071,-0.008999999612569809 0.35499998927116394,-0.20000000298023224z"></path></g></g><g opacity="1" transform="matrix(1,0,0,1,175.8730010986328,229.2239990234375)"><g opacity="1" transform="matrix(2,0,0,2,0,0)"><path fill="rgb(215,143,80)" fill-opacity="1" d=" M0.35499998927116394,-0.20000000298023224 C0.23999999463558197,-0.4000000059604645 -0.008999999612569809,-0.46799999475479126 -0.20100000500679016,-0.3529999852180481 C-0.4020000100135803,-0.24799999594688416 -0.4699999988079071,0 -0.35499998927116394,0.20000000298023224 C-0.23999999463558197,0.4000000059604645 0.008999999612569809,0.46799999475479126 0.20100000500679016,0.3529999852180481 C0.4020000100135803,0.23800000548362732 0.4699999988079071,-0.008999999612569809 0.35499998927116394,-0.20000000298023224z"></path></g></g><g opacity="1" transform="matrix(1,0,0,1,204.78399658203125,266.7179870605469)"><g opacity="1" transform="matrix(2,0,0,2,0,0)"><path fill="rgb(215,143,80)" fill-opacity="1" d=" M0.2840000092983246,-0.28600001335144043 C0.13099999725818634,-0.4480000138282776 -0.12800000607967377,-0.4480000138282776 -0.29100000858306885,-0.28600001335144043 C-0.4440000057220459,-0.12399999797344208 -0.4440000057220459,0.13300000131130219 -0.29100000858306885,0.28600001335144043 C-0.1379999965429306,0.4480000138282776 0.12099999934434891,0.4480000138282776 0.2840000092983246,0.28600001335144043 C0.44699999690055847,0.13300000131130219 0.44699999690055847,-0.12399999797344208 0.2840000092983246,-0.28600001335144043z"></path></g></g><g opacity="1" transform="matrix(1,0,0,1,170.91600036621094,233.0050048828125)"><g opacity="1" transform="matrix(2,0,0,2,0,0)"><path fill="rgb(215,143,80)" fill-opacity="1" d=" M0.2840000092983246,-0.28600001335144043 C0.13099999725818634,-0.4480000138282776 -0.12800000607967377,-0.4480000138282776 -0.29100000858306885,-0.28600001335144043 C-0.4440000057220459,-0.12399999797344208 -0.4440000057220459,0.13300000131130219 -0.29100000858306885,0.28600001335144043 C-0.1379999965429306,0.4480000138282776 0.12099999934434891,0.4480000138282776 0.2840000092983246,0.28600001335144043 C0.44699999690055847,0.13300000131130219 0.44699999690055847,-0.12399999797344208 0.2840000092983246,-0.28600001335144043z"></path></g></g><g opacity="1" transform="matrix(1,0,0,1,208.58399963378906,261.7720031738281)"><g opacity="1" transform="matrix(2,0,0,2,0,0)"><path fill="rgb(215,143,80)" fill-opacity="1" d=" M0.20399999618530273,-0.3529999852180481 C0.012000000104308128,-0.4580000042915344 -0.23600000143051147,-0.39100000262260437 -0.35100001096725464,-0.20000000298023224 C-0.4659999907016754,0 -0.39899998903274536,0.24799999594688416 -0.1979999989271164,0.3529999852180481 C-0.006000000052154064,0.4580000042915344 0.24300000071525574,0.39100000262260437 0.3580000102519989,0.20000000298023224 C0.46299999952316284,0.008999999612569809 0.3959999978542328,-0.23800000548362732 0.20399999618530273,-0.3529999852180481z"></path></g></g><g opacity="1" transform="matrix(1,0,0,1,167.10800170898438,237.94900512695312)"><g opacity="1" transform="matrix(2,0,0,2,0,0)"><path fill="rgb(215,143,80)" fill-opacity="1" d=" M0.20399999618530273,-0.3529999852180481 C0.012000000104308128,-0.4580000042915344 -0.23600000143051147,-0.39100000262260437 -0.35100001096725464,-0.20000000298023224 C-0.4659999907016754,-0.008999999612569809 -0.39899998903274536,0.23800000548362732 -0.1979999989271164,0.3529999852180481 C-0.006000000052154064,0.4580000042915344 0.24300000071525574,0.39100000262260437 0.3580000102519989,0.20000000298023224 C0.46299999952316284,0.008999999612569809 0.3959999978542328,-0.23800000548362732 0.20399999618530273,-0.3529999852180481z"></path></g></g><g opacity="1" transform="matrix(1,0,0,1,210.98599243164062,256.0249938964844)"><g opacity="1" transform="matrix(2,0,0,2,0,0)"><path fill="rgb(215,143,80)" fill-opacity="1" d=" M0.10499999672174454,-0.39100000262260437 C-0.11500000208616257,-0.4480000138282776 -0.335999995470047,-0.32499998807907104 -0.3930000066757202,-0.10499999672174454 C-0.44999998807907104,0.11500000208616257 -0.32499998807907104,0.33399999141693115 -0.10499999672174454,0.39100000262260437 C0.11500000208616257,0.4480000138282776 0.335999995470047,0.32499998807907104 0.3930000066757202,0.10499999672174454 C0.44999998807907104,-0.11500000208616257 0.32499998807907104,-0.33399999141693115 0.10499999672174454,-0.39100000262260437z"></path></g></g><g opacity="1" transform="matrix(1,0,0,1,164.718994140625,243.69200134277344)"><g opacity="1" transform="matrix(2,0,0,2,0,0)"><path fill="rgb(215,143,80)" fill-opacity="1" d=" M0.10499999672174454,-0.39100000262260437 C-0.11500000208616257,-0.4480000138282776 -0.335999995470047,-0.32499998807907104 -0.3930000066757202,-0.10499999672174454 C-0.44999998807907104,0.11500000208616257 -0.32499998807907104,0.33399999141693115 -0.10499999672174454,0.39100000262260437 C0.11500000208616257,0.4480000138282776 0.335999995470047,0.32499998807907104 0.3930000066757202,0.10499999672174454 C0.44999998807907104,-0.11500000208616257 0.32499998807907104,-0.33399999141693115 0.10499999672174454,-0.39100000262260437z"></path></g></g></g></g></svg>