<svg xmlns="http://www.w3.org/2000/svg" viewBox="0 0 350 248" width="350" height="248" class="lottie-asset-module--lottieSvg--1Hi01" preserveAspectRatio="xMidYMid meet" style="width: 100%; height: 100%; transform: translate3d(0px, 0px, 0px);"><defs><clipPath id="__lottie_element_731"><rect width="350" height="248" x="0" y="0"></rect></clipPath></defs><g clip-path="url(#__lottie_element_731)"><g transform="matrix(1,0,0,1,0,0)" opacity="1" style="display: block;"><g opacity="1" transform="matrix(1,0,0,1,168.96800231933594,136.93600463867188)"><path fill="rgb(245,222,102)" fill-opacity="1" d=" M-41.055999755859375,110.19300079345703 C-41.055999755859375,110.19300079345703 -41.263999938964844,0.843999981880188 -41.263999938964844,0.843999981880188 C-41.263999938964844,0.843999981880188 -54.01300048828125,0.8569999933242798 -54.01300048828125,0.8569999933242798 C-54.01300048828125,0.8569999933242798 -54.066001892089844,-54.641998291015625 -54.066001892089844,-54.641998291015625 C-54.09400177001953,-85.24400329589844 -29.922000885009766,-110.16300201416016 -0.18199999630451202,-110.19300079345703 C-0.18199999630451202,-110.19300079345703 -0.13199999928474426,-110.19300079345703 -0.13199999928474426,-110.19300079345703 C29.586000442504883,-110.19300079345703 53.77799987792969,-85.33000183105469 53.80799865722656,-54.744998931884766 C53.80799865722656,-54.744998931884766 53.849998474121094,-10.62399959564209 53.849998474121094,-10.62399959564209 C53.849998474121094,-10.62399959564209 54.09400177001953,28.868000030517578 54.09400177001953,28.868000030517578 C54.09400177001953,28.868000030517578 48.0099983215332,28.905000686645508 48.0099983215332,28.905000686645508 C48.0099983215332,28.905000686645508 47.76599884033203,-10.602999687194824 47.76599884033203,-10.602999687194824 C47.76599884033203,-10.602999687194824 47.7239990234375,-54.73400115966797 47.7239990234375,-54.73400115966797 C47.698001861572266,-81.97000122070312 26.23200035095215,-104.10900115966797 -0.13199999928474426,-104.10900115966797 C-0.13199999928474426,-104.10900115966797 -0.17599999904632568,-104.10900115966797 -0.17599999904632568,-104.10900115966797 C-26.562000274658203,-104.08300018310547 -48.007999420166016,-81.8949966430664 -47.981998443603516,-54.64799880981445 C-47.981998443603516,-54.64799880981445 -47.935001373291016,-5.232999801635742 -47.935001373291016,-5.232999801635742 C-47.935001373291016,-5.232999801635742 -35.19200134277344,-5.244999885559082 -35.19200134277344,-5.244999885559082 C-35.19200134277344,-5.244999885559082 -34.97200012207031,110.18099975585938 -34.97200012207031,110.18099975585938 C-34.97200012207031,110.18099975585938 -41.055999755859375,110.19300079345703 -41.055999755859375,110.19300079345703z"></path></g></g><g transform="matrix(1,0,0,1,217.25,124.25)" opacity="1" style="display: block;"><g opacity="1" transform="matrix(0.9672999978065491,0,0,1,23.52712059020996,94.0719985961914)"><path fill="rgb(245,222,102)" fill-opacity="1" d=" M4.171000003814697,-6.572000026702881 C4.171000003814697,-6.572000026702881 4.171000003814697,6.572000026702881 4.171000003814697,6.572000026702881 C4.171000003814697,6.572000026702881 -4.171000003814697,6.572000026702881 -4.171000003814697,6.572000026702881 C-4.171000003814697,6.572000026702881 -4.171000003814697,-6.572000026702881 -4.171000003814697,-6.572000026702881 C-4.171000003814697,-6.572000026702881 4.171000003814697,-6.572000026702881 4.171000003814697,-6.572000026702881z"></path></g></g><g transform="matrix(1,0,0,1,176.75,124.25)" opacity="1" style="display: block;"><g opacity="1" transform="matrix(0.9672999978065491,0,0,1,23.52712059020996,94.0719985961914)"><path fill="rgb(245,222,102)" fill-opacity="1" d=" M4.171000003814697,-6.572000026702881 C4.171000003814697,-6.572000026702881 4.171000003814697,6.572000026702881 4.171000003814697,6.572000026702881 C4.171000003814697,6.572000026702881 -4.171000003814697,6.572000026702881 -4.171000003814697,6.572000026702881 C-4.171000003814697,6.572000026702881 -4.171000003814697,-6.572000026702881 -4.171000003814697,-6.572000026702881 C-4.171000003814697,-6.572000026702881 4.171000003814697,-6.572000026702881 4.171000003814697,-6.572000026702881z"></path></g></g><g transform="matrix(1,0,0,1,0,-1.5)" opacity="1" style="display: block;"><g opacity="1" transform="matrix(1,0,0,1,219.74899291992188,195.91799926757812)"><path fill="rgb(245,222,102)" fill-opacity="1" d=" M32.27299880981445,19.08099937438965 C32.27299880981445,19.08099937438965 -32.27299880981445,19.08099937438965 -32.27299880981445,19.08099937438965 C-32.27299880981445,19.08099937438965 -32.27299880981445,-5.124000072479248 -32.27299880981445,-5.124000072479248 C-32.27299880981445,-5.124000072479248 -25.548999786376953,-5.124000072479248 -25.548999786376953,-5.124000072479248 C-25.548999786376953,-5.124000072479248 -25.548999786376953,-29.839000701904297 -25.548999786376953,-29.839000701904297 C-25.548999786376953,-30.582000732421875 -24.94700050354004,-31.18400001525879 -24.204999923706055,-31.18400001525879 C-24.204999923706055,-31.18400001525879 24.204999923706055,-31.18400001525879 24.204999923706055,-31.18400001525879 C24.94700050354004,-31.18400001525879 25.548999786376953,-30.582000732421875 25.548999786376953,-29.839000701904297 C25.548999786376953,-29.839000701904297 25.548999786376953,-5.124000072479248 25.548999786376953,-5.124000072479248 C25.548999786376953,-5.124000072479248 32.27299880981445,-5.124000072479248 32.27299880981445,-5.124000072479248 C32.27299880981445,-5.124000072479248 32.27299880981445,19.08099937438965 32.27299880981445,19.08099937438965z"></path></g><g opacity="1" transform="matrix(1,0,0,1,219.9969940185547,180.81900024414062)"><path fill="rgb(255,255,255)" fill-opacity="1" d=" M19.08300018310547,9.831000328063965 C19.08300018310547,9.831000328063965 -19.08300018310547,9.831000328063965 -19.08300018310547,9.831000328063965 C-19.08300018310547,9.831000328063965 -19.08300018310547,-9.831000328063965 -19.08300018310547,-9.831000328063965 C-19.08300018310547,-9.831000328063965 19.08300018310547,-9.831000328063965 19.08300018310547,-9.831000328063965 C19.08300018310547,-9.831000328063965 19.08300018310547,9.831000328063965 19.08300018310547,9.831000328063965z"></path></g><g opacity="1" transform="matrix(1,0,0,1,240.93099975585938,202.67799377441406)"><path fill="rgb(255,255,255)" fill-opacity="1" d=" M5.552000045776367,0 C5.552000045776367,3.065999984741211 3.065999984741211,5.552000045776367 0,5.552000045776367 C-3.065999984741211,5.552000045776367 -5.551000118255615,3.065999984741211 -5.551000118255615,0 C-5.551000118255615,-3.065999984741211 -3.065999984741211,-5.552000045776367 0,-5.552000045776367 C3.065999984741211,-5.552000045776367 5.552000045776367,-3.065999984741211 5.552000045776367,0z"></path></g><g opacity="1" transform="matrix(1,0,0,1,199.2949981689453,202.67799377441406)"><path fill="rgb(255,255,255)" fill-opacity="1" d=" M5.551000118255615,0 C5.551000118255615,3.065999984741211 3.065000057220459,5.552000045776367 -0.0010000000474974513,5.552000045776367 C-3.066999912261963,5.552000045776367 -5.552000045776367,3.065999984741211 -5.552000045776367,0 C-5.552000045776367,-3.065999984741211 -3.066999912261963,-5.552000045776367 -0.0010000000474974513,-5.552000045776367 C3.065000057220459,-5.552000045776367 5.551000118255615,-3.065999984741211 5.551000118255615,0z"></path></g></g><g transform="matrix(1,0,0,1,0,-1.5)" opacity="1" style="display: block;"><g opacity="1" transform="matrix(1,0,0,1,219.9810028076172,180.55799865722656)"><path fill="rgb(245,222,102)" fill-opacity="1" d=" M3.109999895095825,-0.18799999356269836 C3.109999895095825,-0.18799999356269836 3.6659998893737793,-1.0720000267028809 3.6659998893737793,-1.0720000267028809 C3.6659998893737793,-1.0720000267028809 3.6510000228881836,-1.0700000524520874 3.6510000228881836,-1.0700000524520874 C3.6510000228881836,-1.0700000524520874 3.6619999408721924,-1.0889999866485596 3.6619999408721924,-1.0889999866485596 C3.6619999408721924,-1.0889999866485596 3.5810000896453857,-1.0679999589920044 3.5810000896453857,-1.0679999589920044 C3.5810000896453857,-1.0679999589920044 0.45100000500679016,-0.9449999928474426 0.45100000500679016,-0.9449999928474426 C0.45100000500679016,-0.9449999928474426 1.5889999866485596,-6.708000183105469 1.5889999866485596,-6.708000183105469 C1.5889999866485596,-6.708000183105469 -2.009000062942505,-0.8479999899864197 -2.009000062942505,-0.8479999899864197 C-2.009000062942505,-0.8479999899864197 -2.0510001182556152,-0.8460000157356262 -2.0510001182556152,-0.8460000157356262 C-2.0510001182556152,-0.8460000157356262 -2.9100000858306885,0.6179999709129333 -2.9100000858306885,0.6179999709129333 C-2.9100000858306885,0.6179999709129333 -2.9149999618530273,0.6259999871253967 -2.9149999618530273,0.6259999871253967 C-2.9149999618530273,0.6259999871253967 -3.6659998893737793,1.9079999923706055 -3.6659998893737793,1.9079999923706055 C-3.6659998893737793,1.9079999923706055 -0.0989999994635582,1.7640000581741333 -0.0989999994635582,1.7640000581741333 C-0.0989999994635582,1.7640000581741333 -1.1130000352859497,6.708000183105469 -1.1130000352859497,6.708000183105469 C-1.1130000352859497,6.708000183105469 3.109999895095825,-0.18799999356269836 3.109999895095825,-0.18799999356269836z"></path></g></g><g transform="matrix(1,0,0,1,0,-1.5)" opacity="1" style="display: block;"><g opacity="1" transform="matrix(1,0,0,1,219.9810028076172,180.55799865722656)"><path fill="rgb(21,56,79)" fill-opacity="1" d=" M3.109999895095825,-0.18799999356269836 C3.109999895095825,-0.18799999356269836 3.6659998893737793,-1.0720000267028809 3.6659998893737793,-1.0720000267028809 C3.6659998893737793,-1.0720000267028809 3.6510000228881836,-1.0700000524520874 3.6510000228881836,-1.0700000524520874 C3.6510000228881836,-1.0700000524520874 3.6619999408721924,-1.0889999866485596 3.6619999408721924,-1.0889999866485596 C3.6619999408721924,-1.0889999866485596 3.5810000896453857,-1.0679999589920044 3.5810000896453857,-1.0679999589920044 C3.5810000896453857,-1.0679999589920044 0.45100000500679016,-0.9449999928474426 0.45100000500679016,-0.9449999928474426 C0.45100000500679016,-0.9449999928474426 1.5889999866485596,-6.708000183105469 1.5889999866485596,-6.708000183105469 C1.5889999866485596,-6.708000183105469 -2.009000062942505,-0.8479999899864197 -2.009000062942505,-0.8479999899864197 C-2.009000062942505,-0.8479999899864197 -2.0510001182556152,-0.8460000157356262 -2.0510001182556152,-0.8460000157356262 C-2.0510001182556152,-0.8460000157356262 -2.9100000858306885,0.6179999709129333 -2.9100000858306885,0.6179999709129333 C-2.9100000858306885,0.6179999709129333 -2.9149999618530273,0.6259999871253967 -2.9149999618530273,0.6259999871253967 C-2.9149999618530273,0.6259999871253967 -3.6659998893737793,1.9079999923706055 -3.6659998893737793,1.9079999923706055 C-3.6659998893737793,1.9079999923706055 -0.0989999994635582,1.7640000581741333 -0.0989999994635582,1.7640000581741333 C-0.0989999994635582,1.7640000581741333 -1.1130000352859497,6.708000183105469 -1.1130000352859497,6.708000183105469 C-1.1130000352859497,6.708000183105469 3.109999895095825,-0.18799999356269836 3.109999895095825,-0.18799999356269836z"></path></g></g></g></svg>