<svg xmlns="http://www.w3.org/2000/svg" viewBox="0 0 552 420" width="552" height="420" class="lottie-asset-module--lottieSvg--1Hi01" preserveAspectRatio="xMidYMid meet" style="width: 100%; height: 100%; transform: translate3d(0px, 0px, 0px);"><defs><clipPath id="__lottie_element_753"><rect width="552" height="420" x="0" y="0"></rect></clipPath><filter id="__lottie_element_776" filterUnits="objectBoundingBox" x="0%" y="0%" width="100%" height="100%"><feComponentTransfer in="SourceGraphic"><feFuncA type="table" tableValues="1.0 0.0"></feFuncA></feComponentTransfer></filter><mask id="__lottie_element_774" mask-type="alpha"><g filter="url(#__lottie_element_776)"><rect width="552" height="420" x="0" y="0" fill="#ffffff" opacity="0"></rect><g class="mask" transform="matrix(1,0,0,1,375.4179992675781,337.5849914550781)" opacity="1" style="display: block;"><g opacity="1" transform="matrix(2,0,0,2,0,0)"><path fill="rgb(211,116,88)" fill-opacity="1" d=" M0,6.491000175476074 C70.66600036621094,6.458000183105469 72.51699829101562,3.63100004196167 72.51699829101562,0.041999999433755875 C72.51699829101562,-3.5380001068115234 62.66600036621094,-6.416999816894531 0,-6.491000175476074 C-3.5940001010894775,-6.494999885559082 -6.517000198364258,-3.5889999866485596 -6.517000198364258,0 C-6.517000198364258,3.5799999237060547 -3.6029999256134033,6.493000030517578 0,6.491000175476074z"></path></g></g></g></mask></defs><g clip-path="url(#__lottie_element_753)"><g class="coin" transform="matrix(1,0,0,1,349.4179992675781,337.5849914550781)" opacity="1" style="display: block;"><g opacity="1" transform="matrix(2,0,0,2,0,0)"><path fill="rgb(245,222,102)" fill-opacity="1" d=" M0,4.868000030517578 C2.7019999027252197,4.868000030517578 4.888000011444092,2.691999912261963 4.888000011444092,0 C4.888000011444092,-2.681999921798706 2.7019999027252197,-4.868000030517578 0,-4.868000030517578 C-2.7019999027252197,-4.868000030517578 -4.888000011444092,-2.691999912261963 -4.888000011444092,0 C-4.888000011444092,2.691999912261963 -2.7019999027252197,4.868000030517578 0,4.868000030517578z"></path></g></g><g class="coin" transform="matrix(1,0,0,1,375.50299072265625,337.5849914550781)" opacity="1" style="display: block;"><g opacity="1" transform="matrix(2,0,0,2,0,0)"><path fill="rgb(245,222,102)" fill-opacity="1" d=" M0,4.868000030517578 C2.7019999027252197,4.868000030517578 4.88700008392334,2.691999912261963 4.88700008392334,0 C4.88700008392334,-2.681999921798706 2.693000078201294,-4.868000030517578 0,-4.868000030517578 C-2.7019999027252197,-4.868000030517578 -4.88700008392334,-2.691999912261963 -4.88700008392334,0 C-4.88700008392334,2.691999912261963 -2.7019999027252197,4.868000030517578 0,4.868000030517578z"></path></g></g><g class="coin" transform="matrix(1,0,0,1,401.57000732421875,337.5849914550781)" opacity="1" style="display: block;"><g opacity="1" transform="matrix(2,0,0,2,0,0)"><path fill="rgb(245,222,102)" fill-opacity="1" d=" M0,4.868000030517578 C2.7019999027252197,4.868000030517578 4.88700008392334,2.691999912261963 4.88700008392334,0 C4.88700008392334,-2.681999921798706 2.7019999027252197,-4.868000030517578 0,-4.868000030517578 C-2.7019999027252197,-4.868000030517578 -4.88700008392334,-2.691999912261963 -4.88700008392334,0 C-4.88700008392334,2.691999912261963 -2.7019999027252197,4.868000030517578 0,4.868000030517578z"></path></g></g><g class="coin" transform="matrix(1,0,0,1,427.65399169921875,337.5849914550781)" opacity="1" style="display: block;"><g opacity="1" transform="matrix(2,0,0,2,0,0)"><path fill="rgb(245,222,102)" fill-opacity="1" d=" M0,4.868000030517578 C2.7019999027252197,4.868000030517578 4.88700008392334,2.691999912261963 4.88700008392334,0 C4.88700008392334,-2.681999921798706 2.7019999027252197,-4.868000030517578 0,-4.868000030517578 C-2.7019999027252197,-4.868000030517578 -4.88700008392334,-2.691999912261963 -4.88700008392334,0 C-4.88700008392334,2.691999912261963 -2.7019999027252197,4.868000030517578 0,4.868000030517578z"></path></g></g><g class="coin" transform="matrix(1,0,0,1,453.65301513671875,337.5849914550781)" opacity="1" style="display: block;"><g opacity="1" transform="matrix(2,0,0,2,0,0)"><path fill="rgb(245,222,102)" fill-opacity="1" d=" M0,4.868000030517578 C2.7019999027252197,4.868000030517578 4.88700008392334,2.691999912261963 4.88700008392334,0 C4.88700008392334,-2.681999921798706 2.7019999027252197,-4.868000030517578 0,-4.868000030517578 C-2.7019999027252197,-4.868000030517578 -4.88700008392334,-2.691999912261963 -4.88700008392334,0 C-4.88700008392334,2.691999912261963 -2.7019999027252197,4.868000030517578 0,4.868000030517578z"></path></g></g><g mask="url(#__lottie_element_774)" style="display: block;"><g class="arm" transform="matrix(1,0,0,1,271.0929870605469,233.6909942626953)" opacity="1"><g opacity="1" transform="matrix(2,0,0,2,0,0)"><path fill="rgb(227,182,206)" fill-opacity="1" d=" M-52.15299987792969,64.93800354003906 C-52.15299987792969,64.93800354003906 52.10499954223633,64.93800354003906 52.10499954223633,64.93800354003906 C52.10499954223633,64.93800354003906 52.10499954223633,64.93800354003906 52.10499954223633,64.93800354003906 C52.10499954223633,64.93800354003906 52.10499954223633,38.95500183105469 52.10499954223633,38.95500183105469 C52.10499954223633,38.95500183105469 -52.15299987792969,38.95500183105469 -52.15299987792969,38.95500183105469 C-59.349998474121094,38.95500183105469 -65.19499969482422,33.132999420166016 -65.19499969482422,25.964000701904297 C-65.19499969482422,18.795000076293945 -59.340999603271484,12.972000122070312 -52.15299987792969,12.972000122070312 C-52.15299987792969,12.972000122070312 52.1619987487793,12.972000122070312 52.1619987487793,12.972000122070312 C57.43299865722656,12.972000122070312 62.560001373291016,11.940999984741211 67.38999938964844,9.907999992370605 C72.0479965209961,7.951000213623047 76.23600006103516,5.135000228881836 79.81999969482422,1.565000057220459 C83.40399932861328,-2.005000114440918 86.22100067138672,-6.176000118255615 88.19499969482422,-10.8149995803833 C90.23600006103516,-15.62600040435791 91.27200317382812,-20.732999801635742 91.27200317382812,-25.982999801635742 C91.27200317382812,-31.232999801635742 90.23600006103516,-36.3390007019043 88.19499969482422,-41.150001525878906 C86.2300033569336,-45.78900146484375 83.40399932861328,-49.96099853515625 79.81999969482422,-53.53099822998047 C76.23600006103516,-57.10100173950195 72.0479965209961,-59.90800094604492 67.38999938964844,-61.874000549316406 C62.560001373291016,-63.90700149536133 57.43299865722656,-64.93800354003906 52.1619987487793,-64.93800354003906 C52.1619987487793,-64.93800354003906 -57.165000915527344,-64.93800354003906 -57.165000915527344,-64.93800354003906 C-57.165000915527344,-64.93800354003906 -57.165000915527344,-38.96500015258789 -57.165000915527344,-38.96500015258789 C-57.165000915527344,-38.96500015258789 52.15299987792969,-38.96500015258789 52.15299987792969,-38.96500015258789 C59.349998474121094,-38.96500015258789 65.19499969482422,-33.141998291015625 65.19499969482422,-25.972999572753906 C65.19499969482422,-18.804000854492188 59.340999603271484,-12.982000350952148 52.15299987792969,-12.982000350952148 C52.15299987792969,-12.982000350952148 -52.1619987487793,-12.982000350952148 -52.1619987487793,-12.982000350952148 C-57.43299865722656,-12.982000350952148 -62.560001373291016,-11.951000213623047 -67.38999938964844,-9.918000221252441 C-72.0479965209961,-7.960999965667725 -76.23600006103516,-5.144999980926514 -79.81999969482422,-1.5750000476837158 C-83.40399932861328,1.9950000047683716 -86.22100067138672,6.165999889373779 -88.19499969482422,10.805000305175781 C-90.23600006103516,15.616000175476074 -91.27200317382812,20.71299934387207 -91.27200317382812,25.972999572753906 C-91.27200317382812,31.232999801635742 -90.23699951171875,36.33000183105469 -88.18599700927734,41.150001525878906 C-86.22100067138672,45.78900146484375 -83.39399719238281,49.96099853515625 -79.80999755859375,53.53099822998047 C-76.22599792480469,57.10100173950195 -72.03800201416016,59.90800094604492 -67.37999725341797,61.874000549316406 C-62.54999923706055,63.90700149536133 -57.42399978637695,64.93800354003906 -52.15299987792969,64.93800354003906z" class="lottie-asset-module--darkblueTheme_fill--tD1Pk"></path></g></g></g><g class="cupTop" transform="matrix(1,0,0,1,140.7220001220703,75.60000610351562)" opacity="0.4" style="display: block;"><g opacity="1" transform="matrix(2,0,0,2,0,0)"><path fill="rgb(255,255,255)" fill-opacity="1" d=" M0,9.736000061035156 C5.394999980926514,9.736000061035156 9.774999618530273,5.383999824523926 9.774999618530273,0 C9.774999618530273,-5.374000072479248 5.394999980926514,-9.736000061035156 0,-9.736000061035156 C-5.394999980926514,-9.736000061035156 -9.774999618530273,-5.383999824523926 -9.774999618530273,0 C-9.774999618530273,5.374000072479248 -5.40500020980835,9.736000061035156 0,9.736000061035156z"></path></g></g><g class="cupBody" transform="matrix(1,0,0,1,140.71099853515625,122.21199798583984)" opacity="1" style="display: block;"><g opacity="1" transform="matrix(2,0,0,2,0,0)"><path fill="rgb(255,255,255)" fill-opacity="1" d=" M-9.779999732971191,23.267000198364258 C-9.779999732971191,23.267000198364258 9.779999732971191,23.267000198364258 9.779999732971191,23.267000198364258 C9.779999732971191,23.267000198364258 13.038000106811523,-23.267000198364258 13.038000106811523,-23.267000198364258 C13.038000106811523,-23.267000198364258 -13.038000106811523,-23.267000198364258 -13.038000106811523,-23.267000198364258 C-13.038000106811523,-23.267000198364258 -9.779999732971191,23.267000198364258 -9.779999732971191,23.267000198364258z"></path></g></g><g class="cupHolder" transform="matrix(1,0,0,1,140.7100067138672,82.15799713134766)" opacity="1" style="display: block;"><g opacity="1" transform="matrix(2,0,0,2,0,0)"><path fill="rgb(228,243,241)" fill-opacity="1" d=" M-15.21399974822998,3.25 C-15.21399974822998,3.25 15.21399974822998,3.25 15.21399974822998,3.25 C15.21399974822998,3.25 15.21399974822998,3.25 15.21399974822998,3.25 C15.21399974822998,3.25 15.21399974822998,-1.0829999446868896 15.21399974822998,-1.0829999446868896 C15.21399974822998,-2.2760000228881836 14.236000061035156,-3.25 13.038000106811523,-3.25 C13.038000106811523,-3.25 -13.038000106811523,-3.25 -13.038000106811523,-3.25 C-14.236000061035156,-3.25 -15.21399974822998,-2.2760000228881836 -15.21399974822998,-1.0829999446868896 C-15.21399974822998,-1.0829999446868896 -15.21399974822998,3.25 -15.21399974822998,3.25z"></path></g></g><g class="arm" transform="matrix(1,0,0,1,159.1790008544922,110.30699920654297)" opacity="1" style="display: block;"><g opacity="1" transform="matrix(2,0,0,2,0,0)"><path fill="rgb(227,182,206)" fill-opacity="1" d=" M-3.257999897003174,3.244999885559082 C-3.257999897003174,3.244999885559082 3.257999897003174,3.244999885559082 3.257999897003174,3.244999885559082 C5.059999942779541,3.244999885559082 6.517000198364258,1.7949999570846558 6.517000198364258,0 C6.517000198364258,-1.7949999570846558 5.059999942779541,-3.244999885559082 3.257999897003174,-3.244999885559082 C3.257999897003174,-3.244999885559082 -3.257999897003174,-3.244999885559082 -3.257999897003174,-3.244999885559082 C-5.059999942779541,-3.244999885559082 -6.517000198364258,-1.7949999570846558 -6.517000198364258,0 C-6.517000198364258,1.7949999570846558 -5.059999942779541,3.244999885559082 -3.257999897003174,3.244999885559082z" class="lottie-asset-module--darkblueTheme_fill--tD1Pk"></path></g></g><g class="arm" transform="matrix(1,0,0,1,388.44000244140625,318.11199951171875)" opacity="1" style="display: block;"><g opacity="1" transform="matrix(2,0,0,2,0,0)"><path fill="rgb(227,182,206)" fill-opacity="1" d=" M-6.520999908447266,3.244999885559082 C-6.520999908447266,3.244999885559082 6.520999908447266,3.244999885559082 6.520999908447266,3.244999885559082 C8.322999954223633,3.244999885559082 9.779999732971191,1.7949999570846558 9.779999732971191,0 C9.779999732971191,-1.7949999570846558 8.322999954223633,-3.244999885559082 6.520999908447266,-3.244999885559082 C6.520999908447266,-3.244999885559082 -6.520999908447266,-3.244999885559082 -6.520999908447266,-3.244999885559082 C-8.322999954223633,-3.244999885559082 -9.779999732971191,-1.7949999570846558 -9.779999732971191,0 C-9.779999732971191,1.7949999570846558 -8.322999954223633,3.244999885559082 -6.520999908447266,3.244999885559082z" class="lottie-asset-module--darkblueTheme_fill--tD1Pk"></path></g></g><g class="arm" transform="matrix(1,0,0,1,361.8190002441406,308.9219970703125)" opacity="1" style="display: block;"><g opacity="1" transform="matrix(2,0,0,2,0,0)"><path fill="rgb(227,182,206)" fill-opacity="1" d=" M-6.914000034332275,6.886000156402588 C-6.271999835968018,7.526000022888184 -5.439000129699707,7.840000152587891 -4.605000019073486,7.840000152587891 C-3.7709999084472656,7.840000152587891 -2.937000036239624,7.526000022888184 -2.305000066757202,6.886000156402588 C-2.305000066757202,6.886000156402588 6.914000034332275,-2.296999931335449 6.914000034332275,-2.296999931335449 C8.189000129699707,-3.566999912261963 8.189000129699707,-5.618000030517578 6.914000034332275,-6.888000011444092 C5.638999938964844,-8.157999992370605 3.5799999237060547,-8.157999992370605 2.305000066757202,-6.888000011444092 C2.305000066757202,-6.888000011444092 -6.914000034332275,2.2939999103546143 -6.914000034332275,2.2939999103546143 C-8.189000129699707,3.563999891281128 -8.189000129699707,5.616000175476074 -6.914000034332275,6.886000156402588z" class="lottie-asset-module--darkblueTheme_fill--tD1Pk"></path></g></g><g class="arm" transform="matrix(1,0,0,1,352.5889892578125,305.1199951171875)" opacity="1" style="display: block;"><g opacity="1" transform="matrix(2,0,0,2,0,0)"><path fill="rgb(227,182,206)" fill-opacity="1" d=" M-3.257999897003174,6.495999813079834 C-3.257999897003174,8.291000366210938 -1.8020000457763672,9.741000175476074 0,9.741000175476074 C1.8020000457763672,9.741000175476074 3.2679998874664307,8.291000366210938 3.257999897003174,6.495999813079834 C3.257999897003174,6.495999813079834 3.257999897003174,-6.495999813079834 3.257999897003174,-6.495999813079834 C3.257999897003174,-8.291000366210938 1.8020000457763672,-9.741000175476074 0,-9.741000175476074 C-1.8020000457763672,-9.741000175476074 -3.257999897003174,-8.291000366210938 -3.257999897003174,-6.495999813079834 C-3.257999897003174,-6.495999813079834 -3.257999897003174,6.495999813079834 -3.257999897003174,6.495999813079834z" class="lottie-asset-module--darkblueTheme_fill--tD1Pk"></path></g></g><g class="arm" transform="matrix(1,0,0,1,388.46099853515625,357.07501220703125)" opacity="1" style="display: block;"><g opacity="1" transform="matrix(2,0,0,2,0,0)"><path fill="rgb(227,182,206)" fill-opacity="1" d=" M-9.779999732971191,3.244999885559082 C-9.779999732971191,3.244999885559082 9.779999732971191,3.244999885559082 9.779999732971191,3.244999885559082 C9.779999732971191,-0.3440000116825104 6.85699987411499,-3.244999885559082 3.263000011444092,-3.244999885559082 C3.263000011444092,-3.244999885559082 -9.779999732971191,-3.244999885559082 -9.779999732971191,-3.244999885559082 C-9.779999732971191,-3.244999885559082 -9.779999732971191,3.244999885559082 -9.779999732971191,3.244999885559082z" class="lottie-asset-module--darkblueTheme_fill--tD1Pk"></path></g></g><g class="nail" transform="matrix(1,0,0,1,401.50299072265625,318.1309814453125)" opacity="0.3" style="display: block;"><g opacity="1" transform="matrix(2,0,0,2,0,0)"><path fill="rgb(255,255,255)" fill-opacity="1" d=" M-1.628999948501587,1.6230000257492065 C-1.628999948501587,1.6230000257492065 0,1.6230000257492065 0,1.6230000257492065 C0.9010000228881836,1.6230000257492065 1.628999948501587,0.8970000147819519 1.628999948501587,0 C1.628999948501587,-0.8970000147819519 0.9010000228881836,-1.6230000257492065 0,-1.6230000257492065 C0,-1.6230000257492065 -1.628999948501587,-1.6230000257492065 -1.628999948501587,-1.6230000257492065 C-1.628999948501587,-1.6230000257492065 -1.628999948501587,1.6230000257492065 -1.628999948501587,1.6230000257492065z"></path></g></g><g class="arm" transform="matrix(1,0,0,1,-0.125,0.125)" opacity="1" style="display: block;"><g opacity="1" transform="matrix(1,0,0,1,122.24400329589844,110.32499694824219)"><g opacity="1" transform="matrix(2,0,0,2,0,0)"><path fill="rgb(227,182,206)" fill-opacity="1" d=" M-3.257999897003174,3.244999885559082 C-3.257999897003174,3.244999885559082 3.257999897003174,3.244999885559082 3.257999897003174,3.244999885559082 C5.059999942779541,3.244999885559082 6.517000198364258,1.7949999570846558 6.517000198364258,0 C6.517000198364258,-1.7949999570846558 5.059999942779541,-3.244999885559082 3.257999897003174,-3.244999885559082 C3.257999897003174,-3.244999885559082 -3.257999897003174,-3.244999885559082 -3.257999897003174,-3.244999885559082 C-5.059999942779541,-3.244999885559082 -6.517000198364258,-1.7949999570846558 -6.517000198364258,0 C-6.517000198364258,1.7949999570846558 -5.059999942779541,3.244999885559082 -3.257999897003174,3.244999885559082z" class="lottie-asset-module--darkblueTheme_fill--tD1Pk"></path></g></g></g><g class="arm" transform="matrix(1,0,0,1,-0.125,0.125)" opacity="1" style="display: block;"><g opacity="1" transform="matrix(1,0,0,1,122.24400329589844,123.30699920654297)"><g opacity="1" transform="matrix(2,0,0,2,0,0)"><path fill="rgb(227,182,206)" fill-opacity="1" d=" M-3.257999897003174,3.244999885559082 C-3.257999897003174,3.244999885559082 3.257999897003174,3.244999885559082 3.257999897003174,3.244999885559082 C5.059999942779541,3.244999885559082 6.517000198364258,1.7949999570846558 6.517000198364258,0 C6.517000198364258,-1.7949999570846558 5.059999942779541,-3.244999885559082 3.257999897003174,-3.244999885559082 C3.257999897003174,-3.244999885559082 -3.257999897003174,-3.244999885559082 -3.257999897003174,-3.244999885559082 C-5.059999942779541,-3.244999885559082 -6.517000198364258,-1.7949999570846558 -6.517000198364258,0 C-6.517000198364258,1.7949999570846558 -5.059999942779541,3.244999885559082 -3.257999897003174,3.244999885559082z" class="lottie-asset-module--darkblueTheme_fill--tD1Pk"></path></g></g></g><g class="arm" transform="matrix(1,0,0,1,-0.125,0.125)" opacity="1" style="display: block;"><g opacity="1" transform="matrix(1,0,0,1,122.24400329589844,135.92799377441406)"><g opacity="1" transform="matrix(2,0,0,2,0,0)"><path fill="rgb(227,182,206)" fill-opacity="1" d=" M-3.257999897003174,3.244999885559082 C-3.257999897003174,3.244999885559082 3.257999897003174,3.244999885559082 3.257999897003174,3.244999885559082 C5.059999942779541,3.244999885559082 6.517000198364258,1.7949999570846558 6.517000198364258,0 C6.517000198364258,-1.7949999570846558 5.059999942779541,-3.244999885559082 3.257999897003174,-3.244999885559082 C3.257999897003174,-3.244999885559082 -3.257999897003174,-3.244999885559082 -3.257999897003174,-3.244999885559082 C-5.059999942779541,-3.244999885559082 -6.517000198364258,-1.7949999570846558 -6.517000198364258,0 C-6.517000198364258,1.7949999570846558 -5.059999942779541,3.244999885559082 -3.257999897003174,3.244999885559082z" class="lottie-asset-module--darkblueTheme_fill--tD1Pk"></path></g></g></g><g class="arm" transform="matrix(1,0,0,1,-0.125,0.125)" opacity="1" style="display: block;"><g opacity="1" transform="matrix(1,0,0,1,122.24400329589844,148.91000366210938)"><g opacity="1" transform="matrix(2,0,0,2,0,0)"><path fill="rgb(227,182,206)" fill-opacity="1" d=" M-3.257999897003174,3.244999885559082 C-3.257999897003174,3.244999885559082 3.257999897003174,3.244999885559082 3.257999897003174,3.244999885559082 C5.059999942779541,3.244999885559082 6.517000198364258,1.7949999570846558 6.517000198364258,0 C6.517000198364258,-1.7949999570846558 5.059999942779541,-3.244999885559082 3.257999897003174,-3.244999885559082 C3.257999897003174,-3.244999885559082 -3.257999897003174,-3.244999885559082 -3.257999897003174,-3.244999885559082 C-5.059999942779541,-3.244999885559082 -6.517000198364258,-1.7949999570846558 -6.517000198364258,0 C-6.517000198364258,1.7949999570846558 -5.059999942779541,3.244999885559082 -3.257999897003174,3.244999885559082z" class="lottie-asset-module--darkblueTheme_fill--tD1Pk"></path></g></g></g><g class="nail" transform="matrix(1,0,0,1,0.5,0)" opacity="1" style="display: block;"><g opacity="0.3" transform="matrix(1,0,0,1,128.76100158691406,110.32599639892578)"><g opacity="1" transform="matrix(2,0,0,2,0,0)"><path fill="rgb(255,255,255)" fill-opacity="1" d=" M-1.628999948501587,1.6230000257492065 C-1.628999948501587,1.6230000257492065 0,1.6230000257492065 0,1.6230000257492065 C0.9010000228881836,1.6230000257492065 1.628999948501587,0.8970000147819519 1.628999948501587,0 C1.628999948501587,-0.8970000147819519 0.9010000228881836,-1.6230000257492065 0,-1.6230000257492065 C0,-1.6230000257492065 -1.628999948501587,-1.6230000257492065 -1.628999948501587,-1.6230000257492065 C-1.628999948501587,-1.6230000257492065 -1.628999948501587,1.6230000257492065 -1.628999948501587,1.6230000257492065z"></path></g></g></g><g class="nail" transform="matrix(1,0,0,1,0.5,0)" opacity="1" style="display: block;"><g opacity="0.3" transform="matrix(1,0,0,1,128.76100158691406,123.32499694824219)"><g opacity="1" transform="matrix(2,0,0,2,0,0)"><path fill="rgb(255,255,255)" fill-opacity="1" d=" M-1.628999948501587,1.6230000257492065 C-1.628999948501587,1.6230000257492065 0,1.6230000257492065 0,1.6230000257492065 C0.9010000228881836,1.6230000257492065 1.628999948501587,0.8970000147819519 1.628999948501587,0 C1.628999948501587,-0.8970000147819519 0.9010000228881836,-1.6230000257492065 0,-1.6230000257492065 C0,-1.6230000257492065 -1.628999948501587,-1.6230000257492065 -1.628999948501587,-1.6230000257492065 C-1.628999948501587,-1.6230000257492065 -1.628999948501587,1.6230000257492065 -1.628999948501587,1.6230000257492065z"></path></g></g></g><g class="nail" transform="matrix(1,0,0,1,0.5,0)" opacity="1" style="display: block;"><g opacity="0.3" transform="matrix(1,0,0,1,128.76100158691406,135.9250030517578)"><g opacity="1" transform="matrix(2,0,0,2,0,0)"><path fill="rgb(255,255,255)" fill-opacity="1" d=" M-1.628999948501587,1.6230000257492065 C-1.628999948501587,1.6230000257492065 0,1.6230000257492065 0,1.6230000257492065 C0.9010000228881836,1.6230000257492065 1.628999948501587,0.8970000147819519 1.628999948501587,0 C1.628999948501587,-0.8970000147819519 0.9010000228881836,-1.6230000257492065 0,-1.6230000257492065 C0,-1.6230000257492065 -1.628999948501587,-1.6230000257492065 -1.628999948501587,-1.6230000257492065 C-1.628999948501587,-1.6230000257492065 -1.628999948501587,1.6230000257492065 -1.628999948501587,1.6230000257492065z"></path></g></g></g><g class="nail" transform="matrix(1,0,0,1,0.5,0)" opacity="1" style="display: block;"><g opacity="0.3" transform="matrix(1,0,0,1,128.76100158691406,148.90699768066406)"><g opacity="1" transform="matrix(2,0,0,2,0,0)"><path fill="rgb(255,255,255)" fill-opacity="1" d=" M-1.628999948501587,1.6230000257492065 C-1.628999948501587,1.6230000257492065 0,1.6230000257492065 0,1.6230000257492065 C0.9010000228881836,1.6230000257492065 1.628999948501587,0.8970000147819519 1.628999948501587,0 C1.628999948501587,-0.8970000147819519 0.9010000228881836,-1.6230000257492065 0,-1.6230000257492065 C0,-1.6230000257492065 -1.628999948501587,-1.6230000257492065 -1.628999948501587,-1.6230000257492065 C-1.628999948501587,-1.6230000257492065 -1.628999948501587,1.6230000257492065 -1.628999948501587,1.6230000257492065z"></path></g></g></g></g></svg>